<svg viewBox="0 0 1114.2000732421875 400" xmlns="http://www.w3.org/2000/svg"><g><g><g><g><g><line x1="30.78125" y1="377" x2="25.78125" y2="377" style="visibility: inherit;" fill="rgb(0, 0, 0)" stroke="rgb(204, 204, 204)" stroke-width="1px"></line><line x1="30.78125" y1="348" x2="25.78125" y2="348" style="visibility: inherit;" fill="rgb(0, 0, 0)" stroke="rgb(204, 204, 204)" stroke-width="1px"></line><line x1="30.78125" y1="319" x2="25.78125" y2="319" style="visibility: inherit;" fill="rgb(0, 0, 0)" stroke="rgb(204, 204, 204)" stroke-width="1px"></line><line x1="30.78125" y1="290" x2="25.78125" y2="290" style="visibility: inherit;" fill="rgb(0, 0, 0)" stroke="rgb(204, 204, 204)" stroke-width="1px"></line><line x1="30.78125" y1="261" x2="25.78125" y2="261" style="visibility: inherit;" fill="rgb(0, 0, 0)" stroke="rgb(204, 204, 204)" stroke-width="1px"></line><line x1="30.78125" y1="232" x2="25.78125" y2="232" style="visibility: inherit;" fill="rgb(0, 0, 0)" stroke="rgb(204, 204, 204)" stroke-width="1px"></line><line x1="30.78125" y1="203" x2="25.78125" y2="203" style="visibility: inherit;" fill="rgb(0, 0, 0)" stroke="rgb(204, 204, 204)" stroke-width="1px"></line><line x1="30.78125" y1="174" x2="25.78125" y2="174" style="visibility: inherit;" fill="rgb(0, 0, 0)" stroke="rgb(204, 204, 204)" stroke-width="1px"></line><line x1="30.78125" y1="145" x2="25.78125" y2="145" style="visibility: inherit;" fill="rgb(0, 0, 0)" stroke="rgb(204, 204, 204)" stroke-width="1px"></line><line x1="30.78125" y1="116" x2="25.78125" y2="116" style="visibility: inherit;" fill="rgb(0, 0, 0)" stroke="rgb(204, 204, 204)" stroke-width="1px"></line><line x1="30.78125" y1="86.99999999999999" x2="25.78125" y2="86.99999999999999" style="visibility: inherit;" fill="rgb(0, 0, 0)" stroke="rgb(204, 204, 204)" stroke-width="1px"></line><line x1="30.78125" y1="58" x2="25.78125" y2="58" style="visibility: inherit;" fill="rgb(0, 0, 0)" stroke="rgb(204, 204, 204)" stroke-width="1px"></line><line x1="30.78125" y1="28.999999999999982" x2="25.78125" y2="28.999999999999982" style="visibility: inherit;" fill="rgb(0, 0, 0)" stroke="rgb(204, 204, 204)" stroke-width="1px"></line><line x1="30.78125" y1="0" x2="25.78125" y2="0" style="visibility: inherit;" fill="rgb(0, 0, 0)" stroke="rgb(204, 204, 204)" stroke-width="1px"></line></g><g transform="translate(20.78125, 0)"><text x="0" y="377" dx="0em" dy="0.3em" style="text-anchor: end; visibility: hidden; font-family: Roboto, sans-serif; font-size: 12px; font-weight: 200;" fill="rgb(255, 255, 255)" stroke="none" stroke-width="1px">-1</text><text x="0" y="348" dx="0em" dy="0.3em" style="text-anchor: end; visibility: inherit; font-family: Roboto, sans-serif; font-size: 12px; font-weight: 200;" fill="rgb(255, 255, 255)" stroke="none" stroke-width="1px">0</text><text x="0" y="319" dx="0em" dy="0.3em" style="text-anchor: end; visibility: inherit; font-family: Roboto, sans-serif; font-size: 12px; font-weight: 200;" fill="rgb(255, 255, 255)" stroke="none" stroke-width="1px">1</text><text x="0" y="290" dx="0em" dy="0.3em" style="text-anchor: end; visibility: inherit; font-family: Roboto, sans-serif; font-size: 12px; font-weight: 200;" fill="rgb(255, 255, 255)" stroke="none" stroke-width="1px">2</text><text x="0" y="261" dx="0em" dy="0.3em" style="text-anchor: end; visibility: inherit; font-family: Roboto, sans-serif; font-size: 12px; font-weight: 200;" fill="rgb(255, 255, 255)" stroke="none" stroke-width="1px">3</text><text x="0" y="232" dx="0em" dy="0.3em" style="text-anchor: end; visibility: inherit; font-family: Roboto, sans-serif; font-size: 12px; font-weight: 200;" fill="rgb(255, 255, 255)" stroke="none" stroke-width="1px">4</text><text x="0" y="203" dx="0em" dy="0.3em" style="text-anchor: end; visibility: inherit; font-family: Roboto, sans-serif; font-size: 12px; font-weight: 200;" fill="rgb(255, 255, 255)" stroke="none" stroke-width="1px">5</text><text x="0" y="174" dx="0em" dy="0.3em" style="text-anchor: end; visibility: inherit; font-family: Roboto, sans-serif; font-size: 12px; font-weight: 200;" fill="rgb(255, 255, 255)" stroke="none" stroke-width="1px">6</text><text x="0" y="145" dx="0em" dy="0.3em" style="text-anchor: end; visibility: inherit; font-family: Roboto, sans-serif; font-size: 12px; font-weight: 200;" fill="rgb(255, 255, 255)" stroke="none" stroke-width="1px">7</text><text x="0" y="116" dx="0em" dy="0.3em" style="text-anchor: end; visibility: inherit; font-family: Roboto, sans-serif; font-size: 12px; font-weight: 200;" fill="rgb(255, 255, 255)" stroke="none" stroke-width="1px">8</text><text x="0" y="86.99999999999999" dx="0em" dy="0.3em" style="text-anchor: end; visibility: inherit; font-family: Roboto, sans-serif; font-size: 12px; font-weight: 200;" fill="rgb(255, 255, 255)" stroke="none" stroke-width="1px">9</text><text x="0" y="58" dx="0em" dy="0.3em" style="text-anchor: end; visibility: inherit; font-family: Roboto, sans-serif; font-size: 12px; font-weight: 200;" fill="rgb(255, 255, 255)" stroke="none" stroke-width="1px">10</text><text x="0" y="28.999999999999982" dx="0em" dy="0.3em" style="text-anchor: end; visibility: inherit; font-family: Roboto, sans-serif; font-size: 12px; font-weight: 200;" fill="rgb(255, 255, 255)" stroke="none" stroke-width="1px">11</text><text x="0" y="0" dx="0em" dy="0.3em" style="text-anchor: end; visibility: hidden; font-family: Roboto, sans-serif; font-size: 12px; font-weight: 200;" fill="rgb(255, 255, 255)" stroke="none" stroke-width="1px">12</text></g><line x1="30.78125" y1="0" x2="30.78125" y2="377" fill="rgb(0, 0, 0)" stroke="rgb(204, 204, 204)" stroke-width="1px"></line></g></g><g transform="translate(30, 0)" clip-path="url(#clip_0)"><clipPath id="clip_0"><rect width="1083" height="377"></rect></clipPath><g><g><g><line x1="0" y1="0" x2="0" y2="377" fill="rgb(0, 0, 0)" stroke="rgb(189, 189, 189)" stroke-width="1px" opacity="0.25"></line><line x1="154.77410714285713" y1="0" x2="154.77410714285713" y2="377" fill="rgb(0, 0, 0)" stroke="rgb(189, 189, 189)" stroke-width="1px" opacity="0.25"></line><line x1="309.54821428571427" y1="0" x2="309.54821428571427" y2="377" fill="rgb(0, 0, 0)" stroke="rgb(189, 189, 189)" stroke-width="1px" opacity="0.25"></line><line x1="464.3223214285714" y1="0" x2="464.3223214285714" y2="377" fill="rgb(0, 0, 0)" stroke="rgb(189, 189, 189)" stroke-width="1px" opacity="0.25"></line><line x1="619.0964285714285" y1="0" x2="619.0964285714285" y2="377" fill="rgb(0, 0, 0)" stroke="rgb(189, 189, 189)" stroke-width="1px" opacity="0.25"></line><line x1="773.8705357142858" y1="0" x2="773.8705357142858" y2="377" fill="rgb(0, 0, 0)" stroke="rgb(189, 189, 189)" stroke-width="1px" opacity="0.25"></line><line x1="928.6446428571428" y1="0" x2="928.6446428571428" y2="377" fill="rgb(0, 0, 0)" stroke="rgb(189, 189, 189)" stroke-width="1px" opacity="0.25"></line><line x1="1083.41875" y1="0" x2="1083.41875" y2="377" fill="rgb(0, 0, 0)" stroke="rgb(189, 189, 189)" stroke-width="1px" opacity="0.25"></line></g><g><line x1="0" y1="377" x2="1083.41875" y2="377" fill="rgb(0, 0, 0)" stroke="rgb(189, 189, 189)" stroke-width="1px" opacity="0.25"></line><line x1="0" y1="348" x2="1083.41875" y2="348" fill="rgb(0, 0, 0)" stroke="rgb(189, 189, 189)" stroke-width="1px" opacity="0.25"></line><line x1="0" y1="319" x2="1083.41875" y2="319" fill="rgb(0, 0, 0)" stroke="rgb(189, 189, 189)" stroke-width="1px" opacity="0.25"></line><line x1="0" y1="290" x2="1083.41875" y2="290" fill="rgb(0, 0, 0)" stroke="rgb(189, 189, 189)" stroke-width="1px" opacity="0.25"></line><line x1="0" y1="261" x2="1083.41875" y2="261" fill="rgb(0, 0, 0)" stroke="rgb(189, 189, 189)" stroke-width="1px" opacity="0.25"></line><line x1="0" y1="232" x2="1083.41875" y2="232" fill="rgb(0, 0, 0)" stroke="rgb(189, 189, 189)" stroke-width="1px" opacity="0.25"></line><line x1="0" y1="203" x2="1083.41875" y2="203" fill="rgb(0, 0, 0)" stroke="rgb(189, 189, 189)" stroke-width="1px" opacity="0.25"></line><line x1="0" y1="174" x2="1083.41875" y2="174" fill="rgb(0, 0, 0)" stroke="rgb(189, 189, 189)" stroke-width="1px" opacity="0.25"></line><line x1="0" y1="145" x2="1083.41875" y2="145" fill="rgb(0, 0, 0)" stroke="rgb(189, 189, 189)" stroke-width="1px" opacity="0.25"></line><line x1="0" y1="116" x2="1083.41875" y2="116" fill="rgb(0, 0, 0)" stroke="rgb(189, 189, 189)" stroke-width="1px" opacity="0.25"></line><line x1="0" y1="86.99999999999999" x2="1083.41875" y2="86.99999999999999" fill="rgb(0, 0, 0)" stroke="rgb(189, 189, 189)" stroke-width="1px" opacity="0.25"></line><line x1="0" y1="58" x2="1083.41875" y2="58" fill="rgb(0, 0, 0)" stroke="rgb(189, 189, 189)" stroke-width="1px" opacity="0.25"></line><line x1="0" y1="28.999999999999982" x2="1083.41875" y2="28.999999999999982" fill="rgb(0, 0, 0)" stroke="rgb(189, 189, 189)" stroke-width="1px" opacity="0.25"></line><line x1="0" y1="0" x2="1083.41875" y2="0" fill="rgb(0, 0, 0)" stroke="rgb(189, 189, 189)" stroke-width="1px" opacity="0.25"></line></g></g></g><g><g><line x1="0" y1="348" x2="1083.41875" y2="348" fill="rgb(0, 0, 0)" stroke="rgb(153, 153, 153)" stroke-width="1.5px"></line></g></g><g><g><line x1="154.77410714285713" y1="0" x2="154.77410714285713" y2="377" fill="rgb(0, 0, 0)" stroke="rgb(153, 153, 153)" stroke-width="1.5px"></line></g></g><g><g><g><g><g><path stroke="rgb(255, 112, 67)" stroke-width="2px" d="M156.63139642857143,348L162.20326428571428,255.109375L169.63242142857146,209.3345025510204L177.06157857142858,173.10541130514704L184.49073571428573,158.1638944309507L191.91989285714286,147.8876376208378L199.34905,146.32637727488216L204.92091785714285,149.47368911821985L212.350075,145.468853959674L219.77923214285715,127.59196768059607L227.2083892857143,123.84784704893292L234.63754642857145,117.61388825798022L242.06670357142858,133.664295901094L247.63857142857142,115.89089956718784L255.06772857142857,104.32910355743425L262.4968857142857,120.78335405937156L269.9260428571429,120.8637760483792L277.3552,123.44977826330039L284.7843571428571,117.56950863802327L290.35622500000005,112.95403643383742L297.78538214285715,100.39714640042558L305.2145392857143,82.71305507923229L312.64369642857145,83.70284086417685L320.0728535714286,102.78429493371198L327.5020107142857,83.78302293906356L333.0738785714286,73.80122183091387L334.9311678571429,65.08072150291213L340.5030357142857,85.2671952981442L347.93219285714287,81.79156589826819L355.36135,75.71868819640606L362.79050714285717,87.29996445403448L370.21966428571426,77.3924778839174L377.64882142857147,92.47298745047445L383.2206892857143,65.09004168573101L390.6498464285715,66.0602750281176L398.0790035714286,92.56116529021202L405.50816071428574,87.25544914129195L412.93731785714283,99.47826953016086L420.36647500000004,109.89321174130012L425.93834285714286,92.39842702139396L433.36750000000006,103.47030622171656L440.79665714285716,89.08843372610895L448.2258142857143,72.30306023081883L455.65497142857146,76.55058613922715L463.0841285714286,63.149101682143254L468.6559964285714,83.38321101054791L476.08515357142863,76.12992660605734L483.5143107142857,78.30295596368316L490.9434678571429,72.53802357813224L498.372625,64.36656414681329L505.8017821428572,55.83868848804666L511.37365,62.00606991962815L513.2309392857143,60.40364195177406L518.8028071428572,63.06718517106722L526.2319642857143,76.44656110264879L533.6611214285714,71.42418666158738L541.0902785714286,55.1795119969488L548.5194357142858,61.56395719817013L555.9485928571429,68.29462431890263L561.5204607142857,73.60177459134181L568.9496178571429,53.04231475480448L576.378775,59.194138852882816L583.8079321428571,48.20398331172955L591.2370892857143,68.97863998703788L598.6662464285715,87.60593399222279L604.2381142857143,89.90106039533367L611.6672714285716,84.93438623720026L619.0964285714285,79.05438174232013L626.5255857142857,81.8701290453921L633.954742857143,56.553327427235246L641.3839,68.18824645634113L646.955767857143,84.23169787380468L654.384925,81.89526872428284L661.8140821428572,83.03091123456971L669.2432392857143,89.51229674074183L676.6723964285715,66.21362804444509L684.1015535714287,62.02192682666704L689.6734214285715,83.94458672191577L691.5307107142856,83.56675394049806L697.1025785714286,86.57130236429882L704.5317357142857,83.29903141857926L711.9608928571429,86.41066885114755L719.3900500000001,68.70265131068857L726.8192071428572,49.921590786413205L734.2483642857143,61.490454471847954L739.8202321428571,66.43802268310878L747.2493892857143,69.04406360986526L754.6785464285715,82.57018816591916L762.1077035714286,86.8796128995515L769.5368607142858,80.40276773973086L776.9660178571429,76.51666064383855L782.5378857142857,80.34749638630315L789.9670428571428,80.47099783178193L797.3962,67.85759869906913L804.8253571428572,93.45830921944146L812.2545142857143,81.81248553166488L819.6836714285714,75.91249131899896L825.2555392857142,70.55999479139939L832.6846964285714,53.573496874839606L840.1138535714286,62.956598124903756L847.5430107142857,67.49895887494228L854.972167857143,87.80562532496535L862.401325,78.78337519497917L867.9731928571429,69.80716386515644L869.8304821428571,75.48430251526085L875.4023500000001,94.59058150915652L882.8315071428572,88.6543489054939L890.2606642857144,92.88635934329629L897.6898214285716,81.10681560597779L905.1189785714286,87.99533936358671L912.5481357142858,63.853453618151995L918.1200035714286,55.89332217089116L925.5491607142858,77.3984933025347L932.9783178571429,74.71409598152086L940.407475,61.50345758891249L947.8366321428572,60.82707455334753L955.2657892857143,56.43374473200852L960.8376571428572,65.39774683920511L968.2668142857143,49.75114810352309L975.6959714285715,49.24443886211384L983.1251285714287,61.44666331726829L990.5542857142857,43.39299799036098L997.9834428571429,64.64204879421659L1003.5553107142857,58.903979276529945L1010.9844678571429,53.46738756591796L1018.413625,55.28043253955075L1025.8427821428572,60.89950952373047L1033.2719392857143,48.502205714238265L1040.7010964285714,47.951323428542985L1046.2729642857144,41.36508040356131" style="fill: none;" fill="none"></path></g></g></g></g><g opacity="0.2"><g><g><g><path stroke="rgb(255, 112, 67)" stroke-width="2px" d="M156.63139642857143,348L162.20326428571428,199.375L169.63242142857146,165.39062500000003L177.06157857142858,130.5L184.49073571428573,138.65625L191.91989285714286,133.671875L199.34905,144.09375L204.92091785714285,154.0625L212.350075,139.5625L219.77923214285715,101.046875L227.2083892857143,118.26562500000001L234.63754642857145,108.29687500000001L242.06670357142858,157.68749999999997L247.63857142857142,89.265625L255.06772857142857,86.99999999999999L262.4968857142857,145.453125L269.9260428571429,120.98437500000001L277.3552,127.32812499999999L284.7843571428571,108.74999999999999L290.35622500000005,106.03125L297.78538214285715,81.5625L305.2145392857143,56.18750000000001L312.64369642857145,85.18749999999999L320.0728535714286,131.40625L327.5020107142857,55.281250000000014L333.0738785714286,58.828562736511245L334.9311678571429,51.99999332427979L340.5030357142857,115.54687499999999L347.93219285714287,76.578125L355.36135,66.609375L362.79050714285717,104.67187499999999L370.21966428571426,62.531249999999986L377.64882142857147,115.09375000000001L383.2206892857143,24.015625000000018L390.6498464285715,67.51562499999999L398.0790035714286,132.3125L405.50816071428574,79.29687499999999L412.93731785714283,117.8125L420.36647500000004,125.515625L425.93834285714286,66.15625000000001L433.36750000000006,120.07812500000001L440.79665714285716,67.51562499999999L448.2258142857143,47.125L455.65497142857146,82.92187500000001L463.0841285714286,43.04687499999999L468.6559964285714,113.734375L476.08515357142863,65.25000000000001L483.5143107142857,81.5625L490.9434678571429,63.890625L498.372625,52.109375L505.8017821428572,43.04687499999999L511.37365,71.25714206695557L513.2309392857143,58L518.8028071428572,67.06250000000001L526.2319642857143,96.51562500000001L533.6611214285714,63.890625L541.0902785714286,30.812500000000018L548.5194357142858,71.14062500000001L555.9485928571429,78.390625L561.5204607142857,81.5625L568.9496178571429,22.203124999999982L576.378775,68.42187499999999L583.8079321428571,31.718750000000014L591.2370892857143,100.140625L598.6662464285715,115.54687499999999L604.2381142857143,93.34375L611.6672714285716,77.484375L619.0964285714285,70.23437499999999L626.5255857142857,86.09374999999999L633.954742857143,18.578124999999996L641.3839,85.64062500000001L646.955767857143,108.29687500000001L654.384925,78.390625L661.8140821428572,84.73437500000001L669.2432392857143,99.234375L676.6723964285715,31.265624999999993L684.1015535714287,55.73437499999999L689.6734214285715,116.8285765647888L691.5307107142856,83.00000476837158L697.1025785714286,91.07812499999999L704.5317357142857,78.390625L711.9608928571429,91.07812499999999L719.3900500000001,42.140625L726.8192071428572,21.750000000000007L734.2483642857143,78.84375000000001L739.8202321428571,73.85937500000001L747.2493892857143,72.95312500000001L754.6785464285715,102.85937499999999L762.1077035714286,93.34375L769.5368607142858,70.6875L776.9660178571429,70.6875L782.5378857142857,86.09374999999999L789.9670428571428,80.65625L797.3962,48.93749999999999L804.8253571428572,131.859375L812.2545142857143,64.34374999999999L819.6836714285714,67.06250000000001L825.2555392857142,62.531249999999986L832.6846964285714,28.093749999999982L840.1138535714286,77.03125000000001L847.5430107142857,74.31249999999999L854.972167857143,118.26562500000001L862.401325,65.25000000000001L867.9731928571429,56.342846870422356L869.8304821428571,84.00001049041748L875.4023500000001,123.24999999999999L882.8315071428572,79.75000000000001L890.2606642857144,99.234375L897.6898214285716,63.437499999999986L905.1189785714286,98.328125L912.5481357142858,27.640625000000007L918.1200035714286,43.95312499999999L925.5491607142858,109.65624999999999L932.9783178571429,70.6875L940.407475,41.68750000000002L947.8366321428572,59.8125L955.2657892857143,49.84374999999999L960.8376571428572,78.84375000000001L968.2668142857143,26.28124999999999L975.6959714285715,48.484375000000014L983.1251285714287,79.75000000000001L990.5542857142857,16.312499999999982L997.9834428571429,96.51562500000001L1003.5553107142857,50.29687500000001L1010.9844678571429,45.31250000000001L1018.413625,58L1025.8427821428572,69.32812499999999L1033.2719392857143,29.906250000000018L1040.7010964285714,47.125L1046.2729642857144,31.48571586608887" style="fill: none;" fill="none"></path></g></g></g></g></g></g><g transform="translate(30, 377)" clip-path="url(#clip_1)"><clipPath id="clip_1"><rect width="1083" height="23"></rect></clipPath><g><g><line x1="0" y1="0" x2="0" y2="5" style="visibility: inherit;" fill="rgb(0, 0, 0)" stroke="rgb(204, 204, 204)" stroke-width="1px"></line><line x1="154.77410714285713" y1="0" x2="154.77410714285713" y2="5" style="visibility: inherit;" fill="rgb(0, 0, 0)" stroke="rgb(204, 204, 204)" stroke-width="1px"></line><line x1="309.54821428571427" y1="0" x2="309.54821428571427" y2="5" style="visibility: inherit;" fill="rgb(0, 0, 0)" stroke="rgb(204, 204, 204)" stroke-width="1px"></line><line x1="464.3223214285714" y1="0" x2="464.3223214285714" y2="5" style="visibility: inherit;" fill="rgb(0, 0, 0)" stroke="rgb(204, 204, 204)" stroke-width="1px"></line><line x1="619.0964285714285" y1="0" x2="619.0964285714285" y2="5" style="visibility: inherit;" fill="rgb(0, 0, 0)" stroke="rgb(204, 204, 204)" stroke-width="1px"></line><line x1="773.8705357142858" y1="0" x2="773.8705357142858" y2="5" style="visibility: inherit;" fill="rgb(0, 0, 0)" stroke="rgb(204, 204, 204)" stroke-width="1px"></line><line x1="928.6446428571428" y1="0" x2="928.6446428571428" y2="5" style="visibility: inherit;" fill="rgb(0, 0, 0)" stroke="rgb(204, 204, 204)" stroke-width="1px"></line><line x1="1083.41875" y1="0" x2="1083.41875" y2="5" style="visibility: inherit;" fill="rgb(0, 0, 0)" stroke="rgb(204, 204, 204)" stroke-width="1px"></line></g><g transform="translate(0, 8)"><text x="0" y="0" dx="0em" dy="0.95em" style="text-anchor: middle; visibility: hidden; font-family: Roboto, sans-serif; font-size: 12px; font-weight: 200;" fill="rgb(255, 255, 255)" stroke="none" stroke-width="1px">-5M</text><text x="154.77410714285713" y="0" dx="0em" dy="0.95em" style="text-anchor: middle; visibility: inherit; font-family: Roboto, sans-serif; font-size: 12px; font-weight: 200;" fill="rgb(255, 255, 255)" stroke="none" stroke-width="1px">0</text><text x="309.54821428571427" y="0" dx="0em" dy="0.95em" style="text-anchor: middle; visibility: inherit; font-family: Roboto, sans-serif; font-size: 12px; font-weight: 200;" fill="rgb(255, 255, 255)" stroke="none" stroke-width="1px">5M</text><text x="464.3223214285714" y="0" dx="0em" dy="0.95em" style="text-anchor: middle; visibility: inherit; font-family: Roboto, sans-serif; font-size: 12px; font-weight: 200;" fill="rgb(255, 255, 255)" stroke="none" stroke-width="1px">10M</text><text x="619.0964285714285" y="0" dx="0em" dy="0.95em" style="text-anchor: middle; visibility: inherit; font-family: Roboto, sans-serif; font-size: 12px; font-weight: 200;" fill="rgb(255, 255, 255)" stroke="none" stroke-width="1px">15M</text><text x="773.8705357142858" y="0" dx="0em" dy="0.95em" style="text-anchor: middle; visibility: inherit; font-family: Roboto, sans-serif; font-size: 12px; font-weight: 200;" fill="rgb(255, 255, 255)" stroke="none" stroke-width="1px">20M</text><text x="928.6446428571428" y="0" dx="0em" dy="0.95em" style="text-anchor: middle; visibility: inherit; font-family: Roboto, sans-serif; font-size: 12px; font-weight: 200;" fill="rgb(255, 255, 255)" stroke="none" stroke-width="1px">25M</text><text x="1083.41875" y="0" dx="0em" dy="0.95em" style="text-anchor: middle; visibility: hidden; font-family: Roboto, sans-serif; font-size: 12px; font-weight: 200;" fill="rgb(255, 255, 255)" stroke="none" stroke-width="1px">30M</text></g><line x1="0" y1="0" x2="1083.41875" y2="0" fill="rgb(0, 0, 0)" stroke="rgb(204, 204, 204)" stroke-width="1px"></line></g></g></g></g></svg>