<svg viewBox="0 0 1114.2000732421875 400" xmlns="http://www.w3.org/2000/svg"><g><g><g><g><g><line x1="41.171875" y1="377" x2="36.171875" y2="377" style="visibility: inherit;" fill="rgb(0, 0, 0)" stroke="rgb(204, 204, 204)" stroke-width="1px"></line><line x1="41.171875" y1="348" x2="36.171875" y2="348" style="visibility: inherit;" fill="rgb(0, 0, 0)" stroke="rgb(204, 204, 204)" stroke-width="1px"></line><line x1="41.171875" y1="319" x2="36.171875" y2="319" style="visibility: inherit;" fill="rgb(0, 0, 0)" stroke="rgb(204, 204, 204)" stroke-width="1px"></line><line x1="41.171875" y1="290" x2="36.171875" y2="290" style="visibility: inherit;" fill="rgb(0, 0, 0)" stroke="rgb(204, 204, 204)" stroke-width="1px"></line><line x1="41.171875" y1="261" x2="36.171875" y2="261" style="visibility: inherit;" fill="rgb(0, 0, 0)" stroke="rgb(204, 204, 204)" stroke-width="1px"></line><line x1="41.171875" y1="232" x2="36.171875" y2="232" style="visibility: inherit;" fill="rgb(0, 0, 0)" stroke="rgb(204, 204, 204)" stroke-width="1px"></line><line x1="41.171875" y1="203" x2="36.171875" y2="203" style="visibility: inherit;" fill="rgb(0, 0, 0)" stroke="rgb(204, 204, 204)" stroke-width="1px"></line><line x1="41.171875" y1="174" x2="36.171875" y2="174" style="visibility: inherit;" fill="rgb(0, 0, 0)" stroke="rgb(204, 204, 204)" stroke-width="1px"></line><line x1="41.171875" y1="145" x2="36.171875" y2="145" style="visibility: inherit;" fill="rgb(0, 0, 0)" stroke="rgb(204, 204, 204)" stroke-width="1px"></line><line x1="41.171875" y1="116" x2="36.171875" y2="116" style="visibility: inherit;" fill="rgb(0, 0, 0)" stroke="rgb(204, 204, 204)" stroke-width="1px"></line><line x1="41.171875" y1="86.99999999999999" x2="36.171875" y2="86.99999999999999" style="visibility: inherit;" fill="rgb(0, 0, 0)" stroke="rgb(204, 204, 204)" stroke-width="1px"></line><line x1="41.171875" y1="58" x2="36.171875" y2="58" style="visibility: inherit;" fill="rgb(0, 0, 0)" stroke="rgb(204, 204, 204)" stroke-width="1px"></line><line x1="41.171875" y1="28.999999999999982" x2="36.171875" y2="28.999999999999982" style="visibility: inherit;" fill="rgb(0, 0, 0)" stroke="rgb(204, 204, 204)" stroke-width="1px"></line><line x1="41.171875" y1="0" x2="36.171875" y2="0" style="visibility: inherit;" fill="rgb(0, 0, 0)" stroke="rgb(204, 204, 204)" stroke-width="1px"></line></g><g transform="translate(31.171875, 0)"><text x="0" y="377" dx="0em" dy="0.3em" style="text-anchor: end; visibility: hidden; font-family: Roboto, sans-serif; font-size: 12px; font-weight: 200;" fill="rgb(255, 255, 255)" stroke="none" stroke-width="1px">-20</text><text x="0" y="348" dx="0em" dy="0.3em" style="text-anchor: end; visibility: inherit; font-family: Roboto, sans-serif; font-size: 12px; font-weight: 200;" fill="rgb(255, 255, 255)" stroke="none" stroke-width="1px">0</text><text x="0" y="319" dx="0em" dy="0.3em" style="text-anchor: end; visibility: inherit; font-family: Roboto, sans-serif; font-size: 12px; font-weight: 200;" fill="rgb(255, 255, 255)" stroke="none" stroke-width="1px">20</text><text x="0" y="290" dx="0em" dy="0.3em" style="text-anchor: end; visibility: inherit; font-family: Roboto, sans-serif; font-size: 12px; font-weight: 200;" fill="rgb(255, 255, 255)" stroke="none" stroke-width="1px">40</text><text x="0" y="261" dx="0em" dy="0.3em" style="text-anchor: end; visibility: inherit; font-family: Roboto, sans-serif; font-size: 12px; font-weight: 200;" fill="rgb(255, 255, 255)" stroke="none" stroke-width="1px">60</text><text x="0" y="232" dx="0em" dy="0.3em" style="text-anchor: end; visibility: inherit; font-family: Roboto, sans-serif; font-size: 12px; font-weight: 200;" fill="rgb(255, 255, 255)" stroke="none" stroke-width="1px">80</text><text x="0" y="203" dx="0em" dy="0.3em" style="text-anchor: end; visibility: inherit; font-family: Roboto, sans-serif; font-size: 12px; font-weight: 200;" fill="rgb(255, 255, 255)" stroke="none" stroke-width="1px">100</text><text x="0" y="174" dx="0em" dy="0.3em" style="text-anchor: end; visibility: inherit; font-family: Roboto, sans-serif; font-size: 12px; font-weight: 200;" fill="rgb(255, 255, 255)" stroke="none" stroke-width="1px">120</text><text x="0" y="145" dx="0em" dy="0.3em" style="text-anchor: end; visibility: inherit; font-family: Roboto, sans-serif; font-size: 12px; font-weight: 200;" fill="rgb(255, 255, 255)" stroke="none" stroke-width="1px">140</text><text x="0" y="116" dx="0em" dy="0.3em" style="text-anchor: end; visibility: inherit; font-family: Roboto, sans-serif; font-size: 12px; font-weight: 200;" fill="rgb(255, 255, 255)" stroke="none" stroke-width="1px">160</text><text x="0" y="86.99999999999999" dx="0em" dy="0.3em" style="text-anchor: end; visibility: inherit; font-family: Roboto, sans-serif; font-size: 12px; font-weight: 200;" fill="rgb(255, 255, 255)" stroke="none" stroke-width="1px">180</text><text x="0" y="58" dx="0em" dy="0.3em" style="text-anchor: end; visibility: inherit; font-family: Roboto, sans-serif; font-size: 12px; font-weight: 200;" fill="rgb(255, 255, 255)" stroke="none" stroke-width="1px">200</text><text x="0" y="28.999999999999982" dx="0em" dy="0.3em" style="text-anchor: end; visibility: inherit; font-family: Roboto, sans-serif; font-size: 12px; font-weight: 200;" fill="rgb(255, 255, 255)" stroke="none" stroke-width="1px">220</text><text x="0" y="0" dx="0em" dy="0.3em" style="text-anchor: end; visibility: hidden; font-family: Roboto, sans-serif; font-size: 12px; font-weight: 200;" fill="rgb(255, 255, 255)" stroke="none" stroke-width="1px">240</text></g><line x1="41.171875" y1="0" x2="41.171875" y2="377" fill="rgb(0, 0, 0)" stroke="rgb(204, 204, 204)" stroke-width="1px"></line></g></g><g transform="translate(41, 0)" clip-path="url(#clip_0)"><clipPath id="clip_0"><rect width="1073" height="377"></rect></clipPath><g><g><g><line x1="0" y1="0" x2="0" y2="377" fill="rgb(0, 0, 0)" stroke="rgb(189, 189, 189)" stroke-width="1px" opacity="0.25"></line><line x1="76.64486607142857" y1="0" x2="76.64486607142857" y2="377" fill="rgb(0, 0, 0)" stroke="rgb(189, 189, 189)" stroke-width="1px" opacity="0.25"></line><line x1="153.28973214285713" y1="0" x2="153.28973214285713" y2="377" fill="rgb(0, 0, 0)" stroke="rgb(189, 189, 189)" stroke-width="1px" opacity="0.25"></line><line x1="229.9345982142857" y1="0" x2="229.9345982142857" y2="377" fill="rgb(0, 0, 0)" stroke="rgb(189, 189, 189)" stroke-width="1px" opacity="0.25"></line><line x1="306.57946428571427" y1="0" x2="306.57946428571427" y2="377" fill="rgb(0, 0, 0)" stroke="rgb(189, 189, 189)" stroke-width="1px" opacity="0.25"></line><line x1="383.2243303571429" y1="0" x2="383.2243303571429" y2="377" fill="rgb(0, 0, 0)" stroke="rgb(189, 189, 189)" stroke-width="1px" opacity="0.25"></line><line x1="459.8691964285714" y1="0" x2="459.8691964285714" y2="377" fill="rgb(0, 0, 0)" stroke="rgb(189, 189, 189)" stroke-width="1px" opacity="0.25"></line><line x1="536.5140625" y1="0" x2="536.5140625" y2="377" fill="rgb(0, 0, 0)" stroke="rgb(189, 189, 189)" stroke-width="1px" opacity="0.25"></line><line x1="613.1589285714285" y1="0" x2="613.1589285714285" y2="377" fill="rgb(0, 0, 0)" stroke="rgb(189, 189, 189)" stroke-width="1px" opacity="0.25"></line><line x1="689.8037946428573" y1="0" x2="689.8037946428573" y2="377" fill="rgb(0, 0, 0)" stroke="rgb(189, 189, 189)" stroke-width="1px" opacity="0.25"></line><line x1="766.4486607142858" y1="0" x2="766.4486607142858" y2="377" fill="rgb(0, 0, 0)" stroke="rgb(189, 189, 189)" stroke-width="1px" opacity="0.25"></line><line x1="843.0935267857143" y1="0" x2="843.0935267857143" y2="377" fill="rgb(0, 0, 0)" stroke="rgb(189, 189, 189)" stroke-width="1px" opacity="0.25"></line><line x1="919.7383928571428" y1="0" x2="919.7383928571428" y2="377" fill="rgb(0, 0, 0)" stroke="rgb(189, 189, 189)" stroke-width="1px" opacity="0.25"></line><line x1="996.3832589285715" y1="0" x2="996.3832589285715" y2="377" fill="rgb(0, 0, 0)" stroke="rgb(189, 189, 189)" stroke-width="1px" opacity="0.25"></line><line x1="1073.028125" y1="0" x2="1073.028125" y2="377" fill="rgb(0, 0, 0)" stroke="rgb(189, 189, 189)" stroke-width="1px" opacity="0.25"></line></g><g><line x1="0" y1="377" x2="1073.028125" y2="377" fill="rgb(0, 0, 0)" stroke="rgb(189, 189, 189)" stroke-width="1px" opacity="0.25"></line><line x1="0" y1="348" x2="1073.028125" y2="348" fill="rgb(0, 0, 0)" stroke="rgb(189, 189, 189)" stroke-width="1px" opacity="0.25"></line><line x1="0" y1="319" x2="1073.028125" y2="319" fill="rgb(0, 0, 0)" stroke="rgb(189, 189, 189)" stroke-width="1px" opacity="0.25"></line><line x1="0" y1="290" x2="1073.028125" y2="290" fill="rgb(0, 0, 0)" stroke="rgb(189, 189, 189)" stroke-width="1px" opacity="0.25"></line><line x1="0" y1="261" x2="1073.028125" y2="261" fill="rgb(0, 0, 0)" stroke="rgb(189, 189, 189)" stroke-width="1px" opacity="0.25"></line><line x1="0" y1="232" x2="1073.028125" y2="232" fill="rgb(0, 0, 0)" stroke="rgb(189, 189, 189)" stroke-width="1px" opacity="0.25"></line><line x1="0" y1="203" x2="1073.028125" y2="203" fill="rgb(0, 0, 0)" stroke="rgb(189, 189, 189)" stroke-width="1px" opacity="0.25"></line><line x1="0" y1="174" x2="1073.028125" y2="174" fill="rgb(0, 0, 0)" stroke="rgb(189, 189, 189)" stroke-width="1px" opacity="0.25"></line><line x1="0" y1="145" x2="1073.028125" y2="145" fill="rgb(0, 0, 0)" stroke="rgb(189, 189, 189)" stroke-width="1px" opacity="0.25"></line><line x1="0" y1="116" x2="1073.028125" y2="116" fill="rgb(0, 0, 0)" stroke="rgb(189, 189, 189)" stroke-width="1px" opacity="0.25"></line><line x1="0" y1="86.99999999999999" x2="1073.028125" y2="86.99999999999999" fill="rgb(0, 0, 0)" stroke="rgb(189, 189, 189)" stroke-width="1px" opacity="0.25"></line><line x1="0" y1="58" x2="1073.028125" y2="58" fill="rgb(0, 0, 0)" stroke="rgb(189, 189, 189)" stroke-width="1px" opacity="0.25"></line><line x1="0" y1="28.999999999999982" x2="1073.028125" y2="28.999999999999982" fill="rgb(0, 0, 0)" stroke="rgb(189, 189, 189)" stroke-width="1px" opacity="0.25"></line><line x1="0" y1="0" x2="1073.028125" y2="0" fill="rgb(0, 0, 0)" stroke="rgb(189, 189, 189)" stroke-width="1px" opacity="0.25"></line></g></g></g><g><g><line x1="0" y1="348" x2="1073.028125" y2="348" fill="rgb(0, 0, 0)" stroke="rgb(153, 153, 153)" stroke-width="1.5px"></line></g></g><g><g><line x1="76.64486607142857" y1="0" x2="76.64486607142857" y2="377" fill="rgb(0, 0, 0)" stroke="rgb(153, 153, 153)" stroke-width="1.5px"></line></g></g><g><g><g><g><g><path stroke="rgb(204, 51, 17)" stroke-width="2px" d="M78.5609877232143,348L80.477109375,344.12030343711376L82.39323102678573,337.95649567185615L84.30935267857143,333.31073840181614L86.22547433035716,322.90658707100846L88.14159598214286,314.1391556693679L90.05771763392856,301.37354295970977L93.88996093749999,292.3347587855084L95.80608258928572,279.9173461529473L97.72220424107142,275.5507234492514L99.63832589285715,272.1597919498561L101.55444754464285,262.8784541579393L103.47056919642858,257.0408063063418L105.38669084821429,251.8144418368783L109.21893415178572,248.7112526600311L111.13505580357145,241.5217546096007L113.05117745535715,236.19202244631973L114.96729910714285,231.8274867279502L116.88342075892858,232.48740901979724L118.79954241071428,227.64583437524226L122.63178571428571,226.87083887923436L124.54790736607144,224.3929332068204L126.46402901785714,223.84804108234027L128.38015066964286,219.52205351035624L130.29627232142857,221.3979322636098L132.2123939732143,220.72594952658335L134.128515625,221.46824763022602L137.9607589285714,220.00716334861679L139.87688058035715,220.05548165124088L141.79300223214287,216.31898091372508L143.70912388392858,212.9331482004418L145.62524553571427,209.90296393545066L147.54136718750001,209.42051033286117L151.37361049107145,209.2213976857111L153.28973214285713,208.33090515495635L155.20585379464288,211.93514988063782L157.1219754464286,201.0623523733017L159.03809709821428,201.10730049275142L160.95421875,199.3602009094343L162.8703404017857,191.71506951005028L166.70258370535714,192.54352031387234L168.61870535714286,189.11568753457422L170.53482700892857,190.2079986416654L172.45094866071432,189.44049757964166L174.3670703125,181.80768752404234L176.28319196428572,179.9754612081588L178.19931361607144,177.87798927974845L182.03155691964287,171.30816868977183L183.94767857142858,167.3829410697673L185.8638002232143,162.45348809152756L187.77992187499999,158.18066524259115L189.69604352678573,155.35094644779258L191.61216517857144,154.60629723879143L195.44440848214285,143.81500026709165L197.3605301339286,149.47015708164525L199.2766517857143,141.95776258394528L201.19277343750002,134.95540370515076L203.1088950892857,140.16063327533723L205.02501674107143,135.83203304137388L206.94113839285717,138.99973801330106L210.77338169642857,130.4188805887421L212.6895033482143,125.78570732053038L214.60562500000003,124.36967420921276L216.52174665178572,119.4861975308987L218.43786830357143,117.63523933152749L220.35398995535715,120.75121439969773L224.18623325892858,120.09407000944759L226.1023549107143,119.52003789189902L228.0184765625,119.61939791824491L229.9345982142857,119.27294490329064L231.85071986607144,119.28705124373221L233.76684151785716,108.26773581215727L235.68296316964287,101.81188172166931L239.5152064732143,100.19612653056024L241.43132812500002,100.67472639441033L243.34744977678574,99.93872652268136L245.26357142857142,99.67766859183146L247.17969308035714,95.5621019485559L249.09581473214288,107.04210888641872L252.9280580357143,103.33186445294497L254.8441796875,98.89473329579039L256.7603013392857,98.4173224603844L258.67642299107143,100.93546305630876L260.59254464285715,99.65659308036727L262.50866629464286,107.6826484751735L264.4247879464286,97.0119914288541L268.25703125,97.22784182996868L270.1731529017857,91.32881599886011L272.08927455357144,94.51077531708947L274.00539620535716,98.7127457078318L275.9215178571428,101.14237368202332L277.8376395089286,94.87436036644057L279.7537611607143,89.28265302406356L283.58600446428574,92.25281111375453L285.50212611607145,92.0264913557527L287.41824776785717,92.35940067282662L289.3343694196428,92.19463729090305L291.25049107142854,86.18079879299887L293.16661272321426,87.88412075529152L296.99885602678575,87.90504398637806L298.91497767857146,86.92321865256905L300.8310993303572,89.06976828870938L302.7472209821429,85.80158814607718L304.66334263392855,81.55533704291972L306.57946428571427,81.4950921793651L308.4955859375,78.71213160156437L312.32782924107147,86.75872702002063L314.2439508928572,80.29087097763741L316.1600725446429,84.03547229361374L318.07619419642856,76.92030772919557L319.9923158482143,74.22466785284938L321.9084375,84.35873564823306L325.7406808035714,86.46743834938903L327.6568024553572,83.97345708922327L329.5729241071429,78.31076096007698L331.4890457589286,77.31737851208133L333.4051674107143,76.49165360871362L335.3212890625,77.81388712372427L337.2374107142857,75.23610113409785L341.06965401785715,74.77972617118137L342.98577566964286,79.28839661579472L344.90189732142863,73.76272485912524L346.8180189732143,68.85981783783843L348.734140625,69.1069673628593L350.6502622767857,77.17901501244215L352.56638392857144,82.0211638902778L354.48250558035716,77.41215390057293L356.39862723214287,75.3666591005977L358.3147488839286,68.63170749649146L360.23087053571425,74.32257826986752L362.1469921875,76.67467306055333L364.06311383928573,75.62600104092182L365.97923549107145,73.00657016801011L369.8114787946429,70.02030318479045L371.7276004464286,69.86857229173367L373.6437220982143,72.8027095371496L375.55984374999997,76.97542760217253L377.47596540178574,80.41457571413555L379.39208705357146,79.47318207398915L381.3082087053572,82.71853418335829L385.1404520089286,84.65193044653843L387.0565736607143,83.23145672983712L388.9726953125,82.743070815246L390.8888169642857,70.19206990613978L392.8049386160714,73.79386560091041L394.7210602678572,69.1971765993158L398.5533035714286,71.29760130871058L400.46942522321433,73.62267333405447L402.38554687500005,70.23880541644832L404.3016685267857,67.46848375035727L406.2177901785714,67.56369889279246L408.13391183035714,71.24413760960125L410.05003348214285,67.27338655745996L413.88227678571434,68.62480982754236L415.79839843750005,71.28633426078325L417.7145200892857,70.45382631330587L419.63064174107143,69.55306696718277L421.54676339285714,71.64350644007529L423.46288504464286,76.42261356863506L427.2951283482143,77.5274038955756L429.21125000000006,68.41282295257972L431.1273716517857,64.3056353609033L433.04349330357144,70.66135668040917L434.95961495535715,59.45127964545256L436.87573660714287,58.044885524087896L438.7918582589286,66.24716752050746L442.6241015625,61.02743991660136L444.5402232142858,60.27387239722645L446.45634486607145,60.463178113628814L448.37246651785716,55.1458814165171L450.2885881696429,59.61206803448062L452.2047098214286,56.652099524301676L454.1208314732143,55.988619944073236L457.95307477678574,62.365689056287664L459.8691964285714,64.26792814324529L461.7853180803572,67.78661137813467L463.7014397321429,61.444570891822195L465.6175613839286,65.28620267913628L467.5336830357143,67.0066593516224L471.36592633928575,61.47430261780937L473.2820479910714,62.95631435877152L475.1981696428571,55.449814311063726L477.11429129464284,55.75564145529056L479.0304129464286,58.96202134778368L480.9465345982143,56.13836484724442L482.86265625000004,58.630187487448225L486.6948995535715,57.239131474402505L488.61102120535713,53.697465395872L490.52714285714285,54.347874073949L492.44326450892856,51.840570757845995L494.3593861607143,53.68375590685604L496.27550781250005,51.399867191574565L500.1077511160715,51.57747799316744L502.02387276785714,53.68733487939655L503.93999441964286,53.771389269923056L505.8561160714286,54.39157349115308L507.7722377232143,54.14954919723091L509.688359375,56.979498500272165L511.6044810267858,54.02714886822967L515.4367243303572,51.92108149623077L517.3528459821429,64.5073748498869L519.2689676339286,59.13782243190479L521.1850892857143,56.376057106603824L523.1012109375,56.57889903447009L525.0173325892857,53.826083622342175L528.8495758928572,60.81333755133502L530.7656975446429,58.8169759194729L532.6818191964286,58.55841095451577L534.5979408482143,58.96592578413524L536.5140625,49.70943889333269L538.4301841517857,47.64544116803084L540.3463058035715,50.65408049671697L544.1785491071429,49.12392779021771L546.0946707589286,56.05971372979471L548.0107924107143,51.826761465415856L549.9269140625,51.753919428077616L551.8430357142856,53.71427456944427L553.7591573660715,57.94218717819004L555.6752790178572,58.846242177519485L559.5075223214286,58.982614996453115L561.4236439732143,56.23987692023513L563.339765625,50.44044073954338L565.2558872767858,53.543313515991684L567.1720089285715,51.36576411057159L569.0881305803572,54.27865127640155L572.9203738839286,53.71703909347764L574.8364955357143,53.089054022492874L576.7526171875,56.82748758927696L578.6687388392857,56.72781182846852L580.5848604910714,52.92258309317486L582.5009821428571,47.323039907174405L584.4171037946428,44.62833688375776L588.2493470982143,43.47685320447343L590.1654687500001,44.17154313606298L592.0815904017858,48.661393288864325L593.9977120535715,51.03438113933422L595.9138337053572,47.25557314160835L597.8299553571429,49.119195325394685L601.6621986607144,45.36273484660402L603.5783203125001,44.90852591772803L605.4944419642858,43.78654163706261L607.4105636160714,46.80201867120238L609.3266852678571,46.53693935213551L611.2428069196428,41.272031470168L613.1589285714285,41.497018930928945L616.991171875,43.12111998892845L618.9072935267857,47.86157152948989L620.8234151785715,45.18764726339706L622.7395368303572,43.386758585089034L624.6556584821429,45.786933385916726L626.5717801339287,47.05043456768284L628.4879017857144,44.0738117660003L630.4040234375001,47.592285716826744L632.3201450892858,50.33395724552578L634.2362667410715,49.78407399331155L636.1523883928571,50.41124670311582L638.0685100446428,49.19192197206482L639.9846316964286,44.830990585582626L641.9007533482143,41.49045836502146L645.7329966517857,39.73041942819257L647.6491183035714,38.41782288494291L649.5652399553571,46.95859534229386L651.4813616071428,42.45944492510288L653.3974832589286,49.25929549510078L655.3136049107144,50.76660634979486L657.2297265625001,53.7708820838027L661.0619698660715,53.09014552225428L662.9780915178573,47.44126870983695L664.8942131696429,45.57739855500373L666.8103348214286,44.082372055365504L668.7264564732143,42.76165773028967L670.642578125,43.89475373241206L674.4748214285714,42.011755803900364L676.3909430803571,39.33582728605114L678.3070647321429,35.657338351611195L680.2231863839286,34.71160515940418L682.1393080357143,37.480218405701116L684.0554296875,38.35733850191675L685.9715513392857,41.606520105544604L689.8037946428573,40.7117935330533L691.719916294643,42.98693451826945L693.6360379464286,43.49809973684057L695.5521595982143,46.017633035463724L697.46828125,43.656798082996985L699.3844029017857,42.82305834198566L703.2166462053572,38.743250898746076L705.1327678571429,40.203029701845324L707.0488895089286,40.89639026983762L708.9650111607143,37.65504180350414L710.8811328125,42.003059261790014L712.7972544642857,39.785743332952855L714.7133761160715,40.59348426881472L718.5456194196429,43.54963365210915L720.4617410714285,42.19676963218344L722.3778627232143,35.71319178419283L724.293984375,39.601679108601644L726.2101060267858,35.60628792170395L728.1262276785715,41.62874406649892L730.0423493303572,41.492059672321204L733.8745926339286,38.702264306810704L735.7907142857143,36.36943536631299L737.7068359375,40.040728907776064L739.6229575892858,39.87291787445081L741.5390792410715,42.457014579650945L743.4552008928572,36.772924873278846L747.2874441964286,39.012727397111846L749.2035658482142,34.51944735135301L751.1196874999999,31.260940566573503L753.0358091517857,34.44681397373318L754.9519308035715,35.12408569869301L756.8680524553572,38.533747073512714L758.7841741071429,36.681819289029505L762.6164174107143,37.45811409539033L764.5325390625001,40.185365283406064L766.4486607142858,45.15800811047331L768.3647823660715,45.38847887751444L770.2809040178572,43.84473832748522L772.1970256696429,40.51922367276069L776.0292689732144,35.090457543500136L777.945390625,35.32580040500631L779.8615122767857,33.76032673958578L781.7776339285714,34.26844946172022L783.6937555803571,34.16799747244229L785.6098772321428,34.78883864459819L787.5259988839285,33.01623012767693L791.3582421875001,34.63312064496554L793.2743638392858,34.697659862565274L795.1904854910715,37.27543216021493L797.1066071428572,45.377256671617246L799.022728794643,40.28170831205241L800.9388504464287,41.24403170109862L804.7710937500001,39.07919642544431L806.6872154017857,36.07075729618454L808.6033370535714,32.94193161159745L810.5194587053571,37.27881192106L812.4355803571428,41.282928326952444L814.3517020089286,40.14235007478474L816.2678236607143,36.18921955414823L820.1000669642857,37.06125603668813L822.0161886160715,32.78628243060658L823.9323102678572,33.319301501820995L825.848431919643,30.582377715057447L827.7645535714287,29.719191338507127L829.6806752232144,31.29718618982299L831.5967968750001,29.378870185573486L835.4290401785714,29.30978732130501L837.3451618303571,34.42965260518534L839.2612834821429,32.26374767883384L841.1774051339286,40.13076417126516L843.0935267857143,38.82727014826691L845.0096484375,40.87674477938985L848.8418917410714,35.396497917438616L850.7580133928572,36.42044483200613L852.6741350446429,35.989802299594295L854.5902566964286,34.363997041377715L856.5063783482144,37.7306107492407L858.4225000000001,37.59835912532569L860.3386216517858,37.69290371982432L864.1708649553572,34.235433699179744L866.0869866071429,35.2876115378672L868.0031082589286,35.50220254283752L869.9192299107143,35.49261241925723L871.8353515625,31.802562690812117L873.7514732142857,27.877490373276355L877.5837165178572,33.33337502230565L879.4998381696429,28.01331938594202L881.4159598214286,26.385478814182406L883.3320814732143,33.46446081145863L885.248203125,45.02093326177753L887.1643247767857,47.59851546243762L889.0804464285716,48.200830163693L892.9126897321429,49.68640263923145L894.8288113839286,52.618490143109156L896.7449330357143,50.067922088795164L898.6610546875,44.991453326519284L900.5771763392858,42.69153795050145L902.4932979910715,42.524645060339935L904.4094196428572,32.32014042975863L906.3255412946429,34.25849600101927L908.2416629464286,39.06947534719362L910.1577845982143,33.37172488116772L912.07390625,31.56503138866158L913.9900279017858,32.240193454778954L915.9061495535715,34.6429878380041L917.8222712053571,42.546572121747765L921.6545145089285,43.687626805763514L923.5706361607143,47.12606485298936L925.4867578125001,47.96592028386389L927.4028794642858,49.336231552642545L929.3190011160715,51.903719522405815L931.2351227678572,49.66441524615834L933.1512444196429,46.68531693333954L936.9834877232144,50.53889249154669L938.8996093750001,48.68737663262334L940.8157310267858,47.26893507381229L942.7318526785715,49.28108028256861L944.6479743303572,47.595341284775536L946.5640959821428,44.47129992467392L950.3963392857142,41.08968577755825L952.3124609375,35.90095807298028L954.2285825892857,32.16150624027256L956.1447042410715,30.73755773586273L958.0608258928572,28.23225601602939L959.9769475446429,25.481335115965283L961.8930691964287,29.796013899169065L965.7253125000001,27.315051576806106L967.6414341517858,30.904014161415667L969.5575558035715,30.432735950462703L971.4736774553572,29.84175552291431L973.389799107143,38.05016775466654L975.3059207589286,37.70048608981166L979.1381640625,42.605360928789324L981.0542857142857,42.70642212367987L982.9704073660714,43.55057568631727L984.8865290178571,45.42267329264975L986.8026506696428,42.74130142432034L988.7187723214286,50.73439175547108L990.6348939732144,46.72621305621229L994.4671372767858,40.49588652513365L996.3832589285715,42.4514186338302" style="fill: none;" fill="none"></path></g></g></g></g><g opacity="0.2"><g><g><g><path stroke="rgb(204, 51, 17)" stroke-width="2px" d="M78.5609877232143,348L80.477109375,341.79248549938205L82.39323102678573,332.0392402172089L84.30935267857143,327.8473278522492L86.22547433035716,309.3229270935058L88.14159598214286,302.01064176559447L90.05771763392856,283.1185125350952L93.88996093749999,279.1561246871948L95.80608258928572,261.6040744781494L97.72220424107142,269.06679763793943L99.63832589285715,267.1041501998901L101.55444754464285,249.00695610046387L103.47056919642858,248.30339546203615L105.38669084821429,243.98513412475586L109.21893415178572,244.06011657714842L111.13505580357145,230.74257812499997L113.05117745535715,228.19967956542968L114.96729910714285,225.281791305542L116.88342075892858,233.47719192504883L118.79954241071428,220.38391494750974L122.63178571428571,225.7083881378174L124.54790736607144,220.6761562347412L126.46402901785714,223.03071365356445L128.38015066964286,213.03312339782713L130.29627232142857,224.21173706054688L132.2123939732143,219.71797828674315L134.128515625,222.58169288635253L137.9607589285714,217.81553916931153L139.87688058035715,220.12795906066896L141.79300223214287,210.71423187255857L143.70912388392858,207.8544002532959L145.62524553571427,205.35768814086913L147.54136718750001,208.69682998657228L151.37361049107145,208.92272872924806L153.28973214285713,206.99516639709472L155.20585379464288,217.3415168762207L157.1219754464286,184.75315628051757L159.03809709821428,201.17472267150882L160.95421875,196.73955154418945L162.8703404017857,180.24737243652345L166.70258370535714,193.78619651794432L168.61870535714286,183.97393836975098L170.53482700892857,191.84646530151366L172.45094866071432,188.28924598693845L174.3670703125,170.35847244262695L176.28319196428572,177.22712173461912L178.19931361607144,174.7317813873291L182.03155691964287,161.45343780517578L183.94767857142858,161.4950996398926L185.8638002232143,155.05930862426757L187.77992187499999,151.7714309692383L189.69604352678573,151.10636825561525L191.61216517857144,153.48932342529298L195.44440848214285,127.62805480957033L197.3605301339286,157.9528923034668L199.2766517857143,130.68917083740234L201.19277343750002,124.4518653869629L203.1088950892857,147.96847763061524L205.02501674107143,129.33913269042966L206.94113839285717,143.7512954711914L210.77338169642857,117.54759445190427L212.6895033482143,118.83594741821288L214.60562500000003,122.24562454223634L216.52174665178572,112.16098251342775L218.43786830357143,114.85880203247072L220.35398995535715,125.42517700195313L224.18623325892858,119.10835342407226L226.1023549107143,118.65898971557618L228.0184765625,119.7684379577637L229.9345982142857,118.75326538085938L231.85071986607144,119.30821075439454L233.76684151785716,91.7387626647949L235.68296316964287,92.12810058593749L239.5152064732143,97.77249374389648L241.43132812500002,101.39262619018555L243.34744977678574,98.83472671508787L245.26357142857142,99.28608169555662L247.17969308035714,89.38875198364256L249.09581473214288,124.26211929321289L252.9280580357143,97.76649780273439L254.8441796875,92.2390365600586L256.7603013392857,97.70120620727538L258.67642299107143,104.71267395019532L260.59254464285715,97.73828811645507L262.50866629464286,119.72173156738282L264.4247879464286,81.00600585937498L268.25703125,97.55161743164064L270.1731529017857,82.48027725219728L272.08927455357144,99.2837142944336L274.00539620535716,105.01570129394531L275.9215178571428,104.78681564331055L277.8376395089286,85.47234039306639L279.7537611607143,80.89509201049803L283.58600446428574,96.708048248291L285.50212611607145,91.68701171875L287.41824776785717,92.85876464843749L289.3343694196428,91.94749221801757L291.25049107142854,77.16004104614258L293.16661272321426,90.43910369873046L296.99885602678575,87.93642883300781L298.91497767857146,85.45048065185549L300.8310993303572,92.28959274291992L302.7472209821429,80.8993179321289L304.66334263392855,75.18596038818359L306.57946428571427,81.40472488403321L308.4955859375,74.5376907348633L312.32782924107147,98.82862014770507L314.2439508928572,70.5890869140625L316.1600725446429,89.65237426757814L318.07619419642856,66.24756088256837L319.9923158482143,70.18120803833006L321.9084375,99.5598373413086L325.7406808035714,89.63049240112304L327.6568024553572,80.23248519897462L329.5729241071429,69.81671676635743L331.4890457589286,75.82730484008788L333.4051674107143,75.25306625366211L335.3212890625,79.79723739624025L337.2374107142857,71.36942214965822L341.06965401785715,74.09516372680663L342.98577566964286,86.05140228271486L344.90189732142863,65.47421722412108L346.8180189732143,61.505457305908195L348.734140625,69.47769165039061L350.6502622767857,89.28708648681642L352.56638392857144,89.28438720703127L354.48250558035716,70.49863891601561L356.39862723214287,72.29841690063478L358.3147488839286,58.52928009033204L360.23087053571425,82.85888442993163L362.1469921875,80.20281524658202L364.06311383928573,74.05299301147463L365.97923549107145,69.07742385864259L369.8114787946429,65.54090270996095L371.7276004464286,69.64097595214844L373.6437220982143,77.20391540527345L375.55984374999997,83.23450469970702L377.47596540178574,85.57329788208008L379.39208705357146,78.06109161376955L381.3082087053572,87.58656234741211L385.1404520089286,87.55202484130858L387.0565736607143,81.10074615478514L388.9726953125,82.01049194335938L390.8888169642857,51.36556854248045L392.8049386160714,79.1965591430664L394.7210602678572,62.30214309692382L398.5533035714286,74.44823837280273L400.46942522321433,77.11028137207032L402.38554687500005,65.16300354003906L404.3016685267857,63.31300125122072L406.2177901785714,67.70652160644534L408.13391183035714,76.76479568481443L410.05003348214285,61.31725997924806L413.88227678571434,70.65194473266601L415.79839843750005,75.27862091064452L417.7145200892857,69.20506439208987L419.63064174107143,68.20192794799803L421.54676339285714,74.77916564941408L423.46288504464286,83.59127426147462L427.2951283482143,79.18458938598634L429.21125000000006,54.740951538085945L431.1273716517857,58.14485397338868L433.04349330357144,80.19493865966795L434.95961495535715,42.636164093017584L436.87573660714287,55.93529434204103L438.7918582589286,78.55059051513673L442.6241015625,53.197848510742176L444.5402232142858,59.143521118164045L446.45634486607145,60.747136688232445L448.37246651785716,47.169936370849605L450.2885881696429,66.3113479614258L452.2047098214286,52.212146759033196L454.1208314732143,54.99340057373048L457.95307477678574,71.93129272460936L459.8691964285714,67.12128677368166L461.7853180803572,73.06463623046874L463.7014397321429,51.93151016235353L465.6175613839286,71.04865036010742L467.5336830357143,69.58734436035158L471.36592633928575,53.17576751708986L473.2820479910714,65.17933197021485L475.1981696428571,44.19006423950195L477.11429129464284,56.214382171630874L479.0304129464286,63.77159118652346L480.9465345982143,51.90288009643556L482.86265625000004,62.36792144775393L486.6948995535715,55.152547454833964L488.61102120535713,48.38496627807619L490.52714285714285,55.32348709106446L492.44326450892856,48.07961578369141L494.3593861607143,56.44853363037112L496.27550781250005,47.974034118652334L500.1077511160715,51.843894195556636L502.02387276785714,56.85212020874022L503.93999441964286,53.89747085571289L505.8561160714286,55.32184982299803L507.7722377232143,53.786512756347655L509.688359375,61.22442245483396L511.6044810267858,49.59862442016603L515.4367243303572,48.761980438232435L517.3528459821429,83.38681488037109L519.2689676339286,51.08349380493165L521.1850892857143,52.23340911865234L523.1012109375,56.883161926269544L525.0173325892857,49.69686050415041L528.8495758928572,71.29421844482422L530.7656975446429,55.822433471679695L532.6818191964286,58.17056350708009L534.5979408482143,59.57719802856446L536.5140625,35.8247085571289L538.4301841517857,44.549444580078145L540.3463058035715,55.167039489746095L544.1785491071429,46.82869873046875L546.0946707589286,66.46339263916013L548.0107924107143,45.47733306884765L549.9269140625,51.6446563720703L551.8430357142856,56.65480728149415L553.7591573660715,64.2840560913086L555.6752790178572,60.20232467651367L559.5075223214286,59.18717422485351L561.4236439732143,52.1257698059082L563.339765625,41.74128646850587L565.2558872767858,58.197622680664075L567.1720089285715,48.09944000244141L569.0881305803572,58.6479820251465L572.9203738839286,52.874620819091774L574.8364955357143,52.14707641601562L576.7526171875,62.43513793945313L578.6687388392857,56.578298187255854L580.5848604910714,47.214739990234364L582.5009821428571,38.92372512817382L584.4171037946428,40.58628234863283L588.2493470982143,41.74962768554687L590.1654687500001,45.21357803344727L592.0815904017858,55.39616851806642L593.9977120535715,54.593862915039075L595.9138337053572,41.58736114501954L597.8299553571429,51.91462860107421L601.6621986607144,39.728044128417956L603.5783203125001,44.227212524414085L605.4944419642858,42.10356521606447L607.4105636160714,51.32523422241212L609.3266852678571,46.13932037353514L611.2428069196428,33.3746696472168L613.1589285714285,41.834500122070324L616.991171875,45.557271575927714L618.9072935267857,54.97224884033202L620.8234151785715,41.176760864257815L622.7395368303572,40.685425567626964L624.6556584821429,49.3871955871582L626.5717801339287,48.94568634033203L628.4879017857144,39.60887756347657L630.4040234375001,52.86999664306639L632.3201450892858,54.4464645385742L634.2362667410715,48.95924911499023L636.1523883928571,51.35200576782226L638.0685100446428,47.36293487548829L639.9846316964286,38.289593505859365L641.9007533482143,36.47966003417969L645.7329966517857,37.09036102294921L647.6491183035714,36.44892807006837L649.5652399553571,59.76975402832031L651.4813616071428,35.71071929931642L653.3974832589286,59.459071350097645L655.3136049107144,53.02757263183593L657.2297265625001,58.27729568481446L661.0619698660715,52.069040679931625L662.9780915178573,38.967953491210935L664.8942131696429,42.781593322753906L666.8103348214286,41.8398323059082L668.7264564732143,40.780586242675774L670.642578125,45.59439773559569L674.4748214285714,39.1872589111328L676.3909430803571,35.32193450927733L678.3070647321429,30.139604949951163L680.2231863839286,33.29300537109375L682.1393080357143,41.63313827514648L684.0554296875,39.67301864624025L685.9715513392857,46.48029251098632L689.8037946428573,39.36970367431642L691.719916294643,46.39964599609376L693.6360379464286,44.26484756469726L695.5521595982143,49.79693298339844L697.46828125,40.115545654296874L699.3844029017857,41.57244873046877L703.2166462053572,32.62353973388671L705.1327678571429,42.392697906494135L707.0488895089286,41.93643112182619L708.9650111607143,32.793019104003896L710.8811328125,48.52508544921876L712.7972544642857,36.45976943969728L714.7133761160715,41.80509567260742L718.5456194196429,47.9838577270508L720.4617410714285,40.16747360229494L722.3778627232143,25.987825012207022L724.293984375,45.43441009521484L726.2101060267858,29.613201141357415L728.1262276785715,50.66242828369141L730.0423493303572,41.28703308105467L733.8745926339286,34.51757125854491L735.7907142857143,32.870191955566405L737.7068359375,45.5476692199707L739.6229575892858,39.6212013244629L741.5390792410715,46.33315963745116L743.4552008928572,28.246790313720698L747.2874441964286,42.37243118286132L749.2035658482142,27.779527282714838L751.1196874999999,26.37318038940431L753.0358091517857,39.22562408447267L754.9519308035715,36.13999328613282L756.8680524553572,43.64823913574218L758.7841741071429,33.90392761230467L762.6164174107143,38.62255630493162L764.5325390625001,44.276242065429706L766.4486607142858,52.6169723510742L768.3647823660715,45.734185028076176L770.2809040178572,41.52912750244138L772.1970256696429,35.530951690673845L776.0292689732144,26.947308349609383L777.945390625,35.67881469726561L779.8615122767857,31.412116241455095L781.7776339285714,35.03063354492187L783.6937555803571,34.017319488525374L785.6098772321428,35.72010040283204L787.5259988839285,30.357317352294928L791.3582421875001,37.05845642089843L793.2743638392858,34.79446868896484L795.1904854910715,41.142090606689436L797.1066071428572,57.5299934387207L799.022728794643,32.63838577270508L800.9388504464287,42.68751678466796L804.7710937500001,35.83194351196288L806.6872154017857,31.55809860229491L808.6033370535714,28.248693084716805L810.5194587053571,43.78413238525388L812.4355803571428,47.289102935791036L814.3517020089286,38.4314826965332L816.2678236607143,30.259523773193365L820.1000669642857,38.36931076049803L822.0161886160715,26.373822021484358L823.9323102678572,34.11883010864259L825.848431919643,26.47699203491212L827.7645535714287,28.424411773681648L829.6806752232144,33.66417846679687L831.5967968750001,26.50139617919923L835.4290401785714,29.206163024902338L837.3451618303571,42.10945053100587L839.2612834821429,29.014890289306635L841.1774051339286,51.931288909912126L843.0935267857143,36.872029113769514L845.0096484375,43.950956726074196L848.8418917410714,27.176127624511704L850.7580133928572,37.95636520385743L852.6741350446429,35.34383850097656L854.5902566964286,31.925289154052734L856.5063783482144,42.780531311035176L858.4225000000001,37.39998168945313L860.3386216517858,37.83472061157229L864.1708649553572,29.049228668212887L866.0869866071429,36.865878295898426L868.0031082589286,35.82408905029297L869.9192299107143,35.47822723388673L871.8353515625,26.26748809814451L873.7514732142857,21.989881896972648L877.5837165178572,41.51720199584962L879.4998381696429,20.033235931396465L881.4159598214286,23.943717956542987L883.3320814732143,44.08293380737305L885.248203125,62.35564193725587L887.1643247767857,51.46488876342772L889.0804464285716,49.10430221557618L892.9126897321429,51.91476135253905L894.8288113839286,57.01662139892578L896.7449330357143,46.242070007324216L898.6610546875,37.37675018310548L900.5771763392858,39.241664886474624L902.4932979910715,42.274305725097676L904.4094196428572,17.013383483886717L906.3255412946429,37.166029357910176L908.2416629464286,46.285944366455084L910.1577845982143,24.82509918212891L912.07390625,28.854991149902343L913.9900279017858,33.252936553955095L915.9061495535715,38.2471794128418L917.8222712053571,54.40194854736328L921.6545145089285,45.39920883178709L923.5706361607143,52.283721923828146L925.4867578125001,49.22570343017577L927.4028794642858,51.39169845581055L929.3190011160715,55.75495147705077L931.2351227678572,46.30545883178713L933.1512444196429,42.21666946411133L936.9834877232144,56.31925582885742L938.8996093750001,45.910102844238295L940.8157310267858,45.14127273559571L942.7318526785715,52.29929809570313L944.6479743303572,45.06673278808592L946.5640959821428,39.7852378845215L950.3963392857142,36.01726455688478L952.3124609375,28.117866516113292L954.2285825892857,26.55232849121092L956.1447042410715,28.60163497924803L958.0608258928572,24.474303436279317L959.9769475446429,21.35495376586914L961.8930691964287,36.26803207397462L965.7253125000001,23.593608093261725L967.6414341517858,36.287458038330094L969.5575558035715,29.72581863403319L971.4736774553572,28.95528488159178L973.389799107143,50.36278610229491L975.3059207589286,37.175963592529314L979.1381640625,49.96267318725586L981.0542857142857,42.85801391601561L982.9704073660714,44.816806030273455L984.8865290178571,48.230819702148416L986.8026506696428,38.719243621826166L988.7187723214286,62.724027252197274L990.6348939732144,40.71394500732421L994.4671372767858,31.15039672851562L996.3832589285715,45.384716796875004" style="fill: none;" fill="none"></path></g></g></g></g></g></g><g transform="translate(41, 377)" clip-path="url(#clip_1)"><clipPath id="clip_1"><rect width="1073" height="23"></rect></clipPath><g><g><line x1="0" y1="0" x2="0" y2="5" style="visibility: inherit;" fill="rgb(0, 0, 0)" stroke="rgb(204, 204, 204)" stroke-width="1px"></line><line x1="76.64486607142857" y1="0" x2="76.64486607142857" y2="5" style="visibility: inherit;" fill="rgb(0, 0, 0)" stroke="rgb(204, 204, 204)" stroke-width="1px"></line><line x1="153.28973214285713" y1="0" x2="153.28973214285713" y2="5" style="visibility: inherit;" fill="rgb(0, 0, 0)" stroke="rgb(204, 204, 204)" stroke-width="1px"></line><line x1="229.9345982142857" y1="0" x2="229.9345982142857" y2="5" style="visibility: inherit;" fill="rgb(0, 0, 0)" stroke="rgb(204, 204, 204)" stroke-width="1px"></line><line x1="306.57946428571427" y1="0" x2="306.57946428571427" y2="5" style="visibility: inherit;" fill="rgb(0, 0, 0)" stroke="rgb(204, 204, 204)" stroke-width="1px"></line><line x1="383.2243303571429" y1="0" x2="383.2243303571429" y2="5" style="visibility: inherit;" fill="rgb(0, 0, 0)" stroke="rgb(204, 204, 204)" stroke-width="1px"></line><line x1="459.8691964285714" y1="0" x2="459.8691964285714" y2="5" style="visibility: inherit;" fill="rgb(0, 0, 0)" stroke="rgb(204, 204, 204)" stroke-width="1px"></line><line x1="536.5140625" y1="0" x2="536.5140625" y2="5" style="visibility: inherit;" fill="rgb(0, 0, 0)" stroke="rgb(204, 204, 204)" stroke-width="1px"></line><line x1="613.1589285714285" y1="0" x2="613.1589285714285" y2="5" style="visibility: inherit;" fill="rgb(0, 0, 0)" stroke="rgb(204, 204, 204)" stroke-width="1px"></line><line x1="689.8037946428573" y1="0" x2="689.8037946428573" y2="5" style="visibility: inherit;" fill="rgb(0, 0, 0)" stroke="rgb(204, 204, 204)" stroke-width="1px"></line><line x1="766.4486607142858" y1="0" x2="766.4486607142858" y2="5" style="visibility: inherit;" fill="rgb(0, 0, 0)" stroke="rgb(204, 204, 204)" stroke-width="1px"></line><line x1="843.0935267857143" y1="0" x2="843.0935267857143" y2="5" style="visibility: inherit;" fill="rgb(0, 0, 0)" stroke="rgb(204, 204, 204)" stroke-width="1px"></line><line x1="919.7383928571428" y1="0" x2="919.7383928571428" y2="5" style="visibility: inherit;" fill="rgb(0, 0, 0)" stroke="rgb(204, 204, 204)" stroke-width="1px"></line><line x1="996.3832589285715" y1="0" x2="996.3832589285715" y2="5" style="visibility: inherit;" fill="rgb(0, 0, 0)" stroke="rgb(204, 204, 204)" stroke-width="1px"></line><line x1="1073.028125" y1="0" x2="1073.028125" y2="5" style="visibility: inherit;" fill="rgb(0, 0, 0)" stroke="rgb(204, 204, 204)" stroke-width="1px"></line></g><g transform="translate(0, 8)"><text x="0" y="0" dx="0em" dy="0.95em" style="text-anchor: middle; visibility: hidden; font-family: Roboto, sans-serif; font-size: 12px; font-weight: 200;" fill="rgb(255, 255, 255)" stroke="none" stroke-width="1px">-2M</text><text x="76.64486607142857" y="0" dx="0em" dy="0.95em" style="text-anchor: middle; visibility: inherit; font-family: Roboto, sans-serif; font-size: 12px; font-weight: 200;" fill="rgb(255, 255, 255)" stroke="none" stroke-width="1px">0</text><text x="153.28973214285713" y="0" dx="0em" dy="0.95em" style="text-anchor: middle; visibility: inherit; font-family: Roboto, sans-serif; font-size: 12px; font-weight: 200;" fill="rgb(255, 255, 255)" stroke="none" stroke-width="1px">2M</text><text x="229.9345982142857" y="0" dx="0em" dy="0.95em" style="text-anchor: middle; visibility: inherit; font-family: Roboto, sans-serif; font-size: 12px; font-weight: 200;" fill="rgb(255, 255, 255)" stroke="none" stroke-width="1px">4M</text><text x="306.57946428571427" y="0" dx="0em" dy="0.95em" style="text-anchor: middle; visibility: inherit; font-family: Roboto, sans-serif; font-size: 12px; font-weight: 200;" fill="rgb(255, 255, 255)" stroke="none" stroke-width="1px">6M</text><text x="383.2243303571429" y="0" dx="0em" dy="0.95em" style="text-anchor: middle; visibility: inherit; font-family: Roboto, sans-serif; font-size: 12px; font-weight: 200;" fill="rgb(255, 255, 255)" stroke="none" stroke-width="1px">8M</text><text x="459.8691964285714" y="0" dx="0em" dy="0.95em" style="text-anchor: middle; visibility: inherit; font-family: Roboto, sans-serif; font-size: 12px; font-weight: 200;" fill="rgb(255, 255, 255)" stroke="none" stroke-width="1px">10M</text><text x="536.5140625" y="0" dx="0em" dy="0.95em" style="text-anchor: middle; visibility: inherit; font-family: Roboto, sans-serif; font-size: 12px; font-weight: 200;" fill="rgb(255, 255, 255)" stroke="none" stroke-width="1px">12M</text><text x="613.1589285714285" y="0" dx="0em" dy="0.95em" style="text-anchor: middle; visibility: inherit; font-family: Roboto, sans-serif; font-size: 12px; font-weight: 200;" fill="rgb(255, 255, 255)" stroke="none" stroke-width="1px">14M</text><text x="689.8037946428573" y="0" dx="0em" dy="0.95em" style="text-anchor: middle; visibility: inherit; font-family: Roboto, sans-serif; font-size: 12px; font-weight: 200;" fill="rgb(255, 255, 255)" stroke="none" stroke-width="1px">16M</text><text x="766.4486607142858" y="0" dx="0em" dy="0.95em" style="text-anchor: middle; visibility: inherit; font-family: Roboto, sans-serif; font-size: 12px; font-weight: 200;" fill="rgb(255, 255, 255)" stroke="none" stroke-width="1px">18M</text><text x="843.0935267857143" y="0" dx="0em" dy="0.95em" style="text-anchor: middle; visibility: inherit; font-family: Roboto, sans-serif; font-size: 12px; font-weight: 200;" fill="rgb(255, 255, 255)" stroke="none" stroke-width="1px">20M</text><text x="919.7383928571428" y="0" dx="0em" dy="0.95em" style="text-anchor: middle; visibility: inherit; font-family: Roboto, sans-serif; font-size: 12px; font-weight: 200;" fill="rgb(255, 255, 255)" stroke="none" stroke-width="1px">22M</text><text x="996.3832589285715" y="0" dx="0em" dy="0.95em" style="text-anchor: middle; visibility: inherit; font-family: Roboto, sans-serif; font-size: 12px; font-weight: 200;" fill="rgb(255, 255, 255)" stroke="none" stroke-width="1px">24M</text><text x="1073.028125" y="0" dx="0em" dy="0.95em" style="text-anchor: middle; visibility: hidden; font-family: Roboto, sans-serif; font-size: 12px; font-weight: 200;" fill="rgb(255, 255, 255)" stroke="none" stroke-width="1px">26M</text></g><line x1="0" y1="0" x2="1073.028125" y2="0" fill="rgb(0, 0, 0)" stroke="rgb(204, 204, 204)" stroke-width="1px"></line></g></g></g></g></svg>