<svg viewBox="0 0 1114.2000732421875 400" xmlns="http://www.w3.org/2000/svg"><g><g><g><g><g><line x1="30.78125" y1="377" x2="25.78125" y2="377" style="visibility: inherit;" fill="rgb(0, 0, 0)" stroke="rgb(204, 204, 204)" stroke-width="1px"></line><line x1="30.78125" y1="351.8666666666667" x2="25.78125" y2="351.8666666666667" style="visibility: inherit;" fill="rgb(0, 0, 0)" stroke="rgb(204, 204, 204)" stroke-width="1px"></line><line x1="30.78125" y1="326.73333333333335" x2="25.78125" y2="326.73333333333335" style="visibility: inherit;" fill="rgb(0, 0, 0)" stroke="rgb(204, 204, 204)" stroke-width="1px"></line><line x1="30.78125" y1="301.6" x2="25.78125" y2="301.6" style="visibility: inherit;" fill="rgb(0, 0, 0)" stroke="rgb(204, 204, 204)" stroke-width="1px"></line><line x1="30.78125" y1="276.4666666666667" x2="25.78125" y2="276.4666666666667" style="visibility: inherit;" fill="rgb(0, 0, 0)" stroke="rgb(204, 204, 204)" stroke-width="1px"></line><line x1="30.78125" y1="251.33333333333337" x2="25.78125" y2="251.33333333333337" style="visibility: inherit;" fill="rgb(0, 0, 0)" stroke="rgb(204, 204, 204)" stroke-width="1px"></line><line x1="30.78125" y1="226.2" x2="25.78125" y2="226.2" style="visibility: inherit;" fill="rgb(0, 0, 0)" stroke="rgb(204, 204, 204)" stroke-width="1px"></line><line x1="30.78125" y1="201.06666666666666" x2="25.78125" y2="201.06666666666666" style="visibility: inherit;" fill="rgb(0, 0, 0)" stroke="rgb(204, 204, 204)" stroke-width="1px"></line><line x1="30.78125" y1="175.93333333333334" x2="25.78125" y2="175.93333333333334" style="visibility: inherit;" fill="rgb(0, 0, 0)" stroke="rgb(204, 204, 204)" stroke-width="1px"></line><line x1="30.78125" y1="150.8" x2="25.78125" y2="150.8" style="visibility: inherit;" fill="rgb(0, 0, 0)" stroke="rgb(204, 204, 204)" stroke-width="1px"></line><line x1="30.78125" y1="125.66666666666669" x2="25.78125" y2="125.66666666666669" style="visibility: inherit;" fill="rgb(0, 0, 0)" stroke="rgb(204, 204, 204)" stroke-width="1px"></line><line x1="30.78125" y1="100.53333333333336" x2="25.78125" y2="100.53333333333336" style="visibility: inherit;" fill="rgb(0, 0, 0)" stroke="rgb(204, 204, 204)" stroke-width="1px"></line><line x1="30.78125" y1="75.39999999999998" x2="25.78125" y2="75.39999999999998" style="visibility: inherit;" fill="rgb(0, 0, 0)" stroke="rgb(204, 204, 204)" stroke-width="1px"></line><line x1="30.78125" y1="50.26666666666666" x2="25.78125" y2="50.26666666666666" style="visibility: inherit;" fill="rgb(0, 0, 0)" stroke="rgb(204, 204, 204)" stroke-width="1px"></line><line x1="30.78125" y1="25.13333333333333" x2="25.78125" y2="25.13333333333333" style="visibility: inherit;" fill="rgb(0, 0, 0)" stroke="rgb(204, 204, 204)" stroke-width="1px"></line><line x1="30.78125" y1="0" x2="25.78125" y2="0" style="visibility: inherit;" fill="rgb(0, 0, 0)" stroke="rgb(204, 204, 204)" stroke-width="1px"></line></g><g transform="translate(20.78125, 0)"><text x="0" y="377" dx="0em" dy="0.3em" style="text-anchor: end; visibility: hidden; font-family: Roboto, sans-serif; font-size: 12px; font-weight: 200;" fill="rgb(255, 255, 255)" stroke="none" stroke-width="1px">-2</text><text x="0" y="351.8666666666667" dx="0em" dy="0.3em" style="text-anchor: end; visibility: inherit; font-family: Roboto, sans-serif; font-size: 12px; font-weight: 200;" fill="rgb(255, 255, 255)" stroke="none" stroke-width="1px">0</text><text x="0" y="326.73333333333335" dx="0em" dy="0.3em" style="text-anchor: end; visibility: inherit; font-family: Roboto, sans-serif; font-size: 12px; font-weight: 200;" fill="rgb(255, 255, 255)" stroke="none" stroke-width="1px">2</text><text x="0" y="301.6" dx="0em" dy="0.3em" style="text-anchor: end; visibility: inherit; font-family: Roboto, sans-serif; font-size: 12px; font-weight: 200;" fill="rgb(255, 255, 255)" stroke="none" stroke-width="1px">4</text><text x="0" y="276.4666666666667" dx="0em" dy="0.3em" style="text-anchor: end; visibility: inherit; font-family: Roboto, sans-serif; font-size: 12px; font-weight: 200;" fill="rgb(255, 255, 255)" stroke="none" stroke-width="1px">6</text><text x="0" y="251.33333333333337" dx="0em" dy="0.3em" style="text-anchor: end; visibility: inherit; font-family: Roboto, sans-serif; font-size: 12px; font-weight: 200;" fill="rgb(255, 255, 255)" stroke="none" stroke-width="1px">8</text><text x="0" y="226.2" dx="0em" dy="0.3em" style="text-anchor: end; visibility: inherit; font-family: Roboto, sans-serif; font-size: 12px; font-weight: 200;" fill="rgb(255, 255, 255)" stroke="none" stroke-width="1px">10</text><text x="0" y="201.06666666666666" dx="0em" dy="0.3em" style="text-anchor: end; visibility: inherit; font-family: Roboto, sans-serif; font-size: 12px; font-weight: 200;" fill="rgb(255, 255, 255)" stroke="none" stroke-width="1px">12</text><text x="0" y="175.93333333333334" dx="0em" dy="0.3em" style="text-anchor: end; visibility: inherit; font-family: Roboto, sans-serif; font-size: 12px; font-weight: 200;" fill="rgb(255, 255, 255)" stroke="none" stroke-width="1px">14</text><text x="0" y="150.8" dx="0em" dy="0.3em" style="text-anchor: end; visibility: inherit; font-family: Roboto, sans-serif; font-size: 12px; font-weight: 200;" fill="rgb(255, 255, 255)" stroke="none" stroke-width="1px">16</text><text x="0" y="125.66666666666669" dx="0em" dy="0.3em" style="text-anchor: end; visibility: inherit; font-family: Roboto, sans-serif; font-size: 12px; font-weight: 200;" fill="rgb(255, 255, 255)" stroke="none" stroke-width="1px">18</text><text x="0" y="100.53333333333336" dx="0em" dy="0.3em" style="text-anchor: end; visibility: inherit; font-family: Roboto, sans-serif; font-size: 12px; font-weight: 200;" fill="rgb(255, 255, 255)" stroke="none" stroke-width="1px">20</text><text x="0" y="75.39999999999998" dx="0em" dy="0.3em" style="text-anchor: end; visibility: inherit; font-family: Roboto, sans-serif; font-size: 12px; font-weight: 200;" fill="rgb(255, 255, 255)" stroke="none" stroke-width="1px">22</text><text x="0" y="50.26666666666666" dx="0em" dy="0.3em" style="text-anchor: end; visibility: inherit; font-family: Roboto, sans-serif; font-size: 12px; font-weight: 200;" fill="rgb(255, 255, 255)" stroke="none" stroke-width="1px">24</text><text x="0" y="25.13333333333333" dx="0em" dy="0.3em" style="text-anchor: end; visibility: inherit; font-family: Roboto, sans-serif; font-size: 12px; font-weight: 200;" fill="rgb(255, 255, 255)" stroke="none" stroke-width="1px">26</text><text x="0" y="0" dx="0em" dy="0.3em" style="text-anchor: end; visibility: hidden; font-family: Roboto, sans-serif; font-size: 12px; font-weight: 200;" fill="rgb(255, 255, 255)" stroke="none" stroke-width="1px">28</text></g><line x1="30.78125" y1="0" x2="30.78125" y2="377" fill="rgb(0, 0, 0)" stroke="rgb(204, 204, 204)" stroke-width="1px"></line></g></g><g transform="translate(30, 0)" clip-path="url(#clip_0)"><clipPath id="clip_0"><rect width="1083" height="377"></rect></clipPath><g><g><g><line x1="0" y1="0" x2="0" y2="377" fill="rgb(0, 0, 0)" stroke="rgb(189, 189, 189)" stroke-width="1px" opacity="0.25"></line><line x1="83.33990384615386" y1="0" x2="83.33990384615386" y2="377" fill="rgb(0, 0, 0)" stroke="rgb(189, 189, 189)" stroke-width="1px" opacity="0.25"></line><line x1="166.67980769230772" y1="0" x2="166.67980769230772" y2="377" fill="rgb(0, 0, 0)" stroke="rgb(189, 189, 189)" stroke-width="1px" opacity="0.25"></line><line x1="250.01971153846156" y1="0" x2="250.01971153846156" y2="377" fill="rgb(0, 0, 0)" stroke="rgb(189, 189, 189)" stroke-width="1px" opacity="0.25"></line><line x1="333.35961538461544" y1="0" x2="333.35961538461544" y2="377" fill="rgb(0, 0, 0)" stroke="rgb(189, 189, 189)" stroke-width="1px" opacity="0.25"></line><line x1="416.6995192307693" y1="0" x2="416.6995192307693" y2="377" fill="rgb(0, 0, 0)" stroke="rgb(189, 189, 189)" stroke-width="1px" opacity="0.25"></line><line x1="500.03942307692313" y1="0" x2="500.03942307692313" y2="377" fill="rgb(0, 0, 0)" stroke="rgb(189, 189, 189)" stroke-width="1px" opacity="0.25"></line><line x1="583.379326923077" y1="0" x2="583.379326923077" y2="377" fill="rgb(0, 0, 0)" stroke="rgb(189, 189, 189)" stroke-width="1px" opacity="0.25"></line><line x1="666.7192307692309" y1="0" x2="666.7192307692309" y2="377" fill="rgb(0, 0, 0)" stroke="rgb(189, 189, 189)" stroke-width="1px" opacity="0.25"></line><line x1="750.0591346153847" y1="0" x2="750.0591346153847" y2="377" fill="rgb(0, 0, 0)" stroke="rgb(189, 189, 189)" stroke-width="1px" opacity="0.25"></line><line x1="833.3990384615386" y1="0" x2="833.3990384615386" y2="377" fill="rgb(0, 0, 0)" stroke="rgb(189, 189, 189)" stroke-width="1px" opacity="0.25"></line><line x1="916.7389423076924" y1="0" x2="916.7389423076924" y2="377" fill="rgb(0, 0, 0)" stroke="rgb(189, 189, 189)" stroke-width="1px" opacity="0.25"></line><line x1="1000.0788461538463" y1="0" x2="1000.0788461538463" y2="377" fill="rgb(0, 0, 0)" stroke="rgb(189, 189, 189)" stroke-width="1px" opacity="0.25"></line><line x1="1083.41875" y1="0" x2="1083.41875" y2="377" fill="rgb(0, 0, 0)" stroke="rgb(189, 189, 189)" stroke-width="1px" opacity="0.25"></line></g><g><line x1="0" y1="377" x2="1083.41875" y2="377" fill="rgb(0, 0, 0)" stroke="rgb(189, 189, 189)" stroke-width="1px" opacity="0.25"></line><line x1="0" y1="351.8666666666667" x2="1083.41875" y2="351.8666666666667" fill="rgb(0, 0, 0)" stroke="rgb(189, 189, 189)" stroke-width="1px" opacity="0.25"></line><line x1="0" y1="326.73333333333335" x2="1083.41875" y2="326.73333333333335" fill="rgb(0, 0, 0)" stroke="rgb(189, 189, 189)" stroke-width="1px" opacity="0.25"></line><line x1="0" y1="301.6" x2="1083.41875" y2="301.6" fill="rgb(0, 0, 0)" stroke="rgb(189, 189, 189)" stroke-width="1px" opacity="0.25"></line><line x1="0" y1="276.4666666666667" x2="1083.41875" y2="276.4666666666667" fill="rgb(0, 0, 0)" stroke="rgb(189, 189, 189)" stroke-width="1px" opacity="0.25"></line><line x1="0" y1="251.33333333333337" x2="1083.41875" y2="251.33333333333337" fill="rgb(0, 0, 0)" stroke="rgb(189, 189, 189)" stroke-width="1px" opacity="0.25"></line><line x1="0" y1="226.2" x2="1083.41875" y2="226.2" fill="rgb(0, 0, 0)" stroke="rgb(189, 189, 189)" stroke-width="1px" opacity="0.25"></line><line x1="0" y1="201.06666666666666" x2="1083.41875" y2="201.06666666666666" fill="rgb(0, 0, 0)" stroke="rgb(189, 189, 189)" stroke-width="1px" opacity="0.25"></line><line x1="0" y1="175.93333333333334" x2="1083.41875" y2="175.93333333333334" fill="rgb(0, 0, 0)" stroke="rgb(189, 189, 189)" stroke-width="1px" opacity="0.25"></line><line x1="0" y1="150.8" x2="1083.41875" y2="150.8" fill="rgb(0, 0, 0)" stroke="rgb(189, 189, 189)" stroke-width="1px" opacity="0.25"></line><line x1="0" y1="125.66666666666669" x2="1083.41875" y2="125.66666666666669" fill="rgb(0, 0, 0)" stroke="rgb(189, 189, 189)" stroke-width="1px" opacity="0.25"></line><line x1="0" y1="100.53333333333336" x2="1083.41875" y2="100.53333333333336" fill="rgb(0, 0, 0)" stroke="rgb(189, 189, 189)" stroke-width="1px" opacity="0.25"></line><line x1="0" y1="75.39999999999998" x2="1083.41875" y2="75.39999999999998" fill="rgb(0, 0, 0)" stroke="rgb(189, 189, 189)" stroke-width="1px" opacity="0.25"></line><line x1="0" y1="50.26666666666666" x2="1083.41875" y2="50.26666666666666" fill="rgb(0, 0, 0)" stroke="rgb(189, 189, 189)" stroke-width="1px" opacity="0.25"></line><line x1="0" y1="25.13333333333333" x2="1083.41875" y2="25.13333333333333" fill="rgb(0, 0, 0)" stroke="rgb(189, 189, 189)" stroke-width="1px" opacity="0.25"></line><line x1="0" y1="0" x2="1083.41875" y2="0" fill="rgb(0, 0, 0)" stroke="rgb(189, 189, 189)" stroke-width="1px" opacity="0.25"></line></g></g></g><g><g><line x1="0" y1="351.8666666666667" x2="1083.41875" y2="351.8666666666667" fill="rgb(0, 0, 0)" stroke="rgb(153, 153, 153)" stroke-width="1.5px"></line></g></g><g><g><line x1="83.33990384615386" y1="0" x2="83.33990384615386" y2="377" fill="rgb(0, 0, 0)" stroke="rgb(153, 153, 153)" stroke-width="1.5px"></line></g></g><g><g><g><g><g><path stroke="rgb(0, 119, 187)" stroke-width="2px" d="M84.17330288461538,349.5910070473949L85.00670192307692,308.36422313259294L85.84010096153847,288.7631949389366L86.6735,258.95147780900385L87.50689903846154,255.3289969763914L88.34029807692308,242.6900302536794L89.17369711538461,240.81563301138527L90.8404951923077,210.34758543799L91.67389423076924,199.46251446916924L92.50729326923077,184.6167666141357L93.34069230769231,191.9202231263927L94.17409134615384,210.51435977776404L95.0074903846154,213.75254825494122L95.84088942307693,212.70003300034654L97.5076875,207.45920577825322L98.34108653846154,214.69496023010404L99.17448557692309,194.5223041807593L100.00788461538463,202.5153515721431L100.84128365384615,205.9307568913823L101.6746826923077,201.67533015572405L103.34148076923077,204.770384931759L104.17487980769232,204.30916621328583L105.00827884615384,194.38148345221995L105.84167788461538,181.72970892692445L106.67507692307693,191.1621578471136L107.50847596153847,190.34575132598346L108.34187500000002,202.91689173718584L110.00867307692307,207.08443122136507L110.84207211538462,196.96717522548866L111.67547115384616,185.74214249493804L112.5088701923077,184.90974911640896L113.34226923076923,183.30913819642134L114.17566826923077,183.60721695359135L115.84246634615386,187.91104062769918L116.67586538461539,169.99111188187703L117.50926442307693,190.52470651785939L118.34266346153846,193.15681275757126L119.1760625,177.93906086972413L120.00946153846155,183.53561946938208L120.84286057692309,179.04153077392905L122.50965865384616,186.91382620840335L123.3430576923077,190.33634272884558L124.17645673076925,181.43463240170487L125.00985576923078,178.34168404508102L125.8432548076923,189.46012685276486L126.67665384615385,183.6689636591086L127.51005288461539,177.0572298899606L129.17685096153846,194.83906456045386L130.01025,193.0506487938247L130.84364903846154,196.9611361559041L131.67704807692309,181.58300869949002L132.51044711538464,183.26726385566488L133.34384615384616,181.77660714355582L135.01064423076923,183.16562128127248L135.84404326923075,190.94486665762335L136.6774423076923,194.01592411699139L137.51084134615385,192.24624115130607L138.34424038461538,191.5226293724852L139.17763942307693,191.622755607093L140.01103846153848,191.08388882008666L141.67783653846155,186.90448163545602L142.5112355769231,175.49908373631902L143.34463461538465,193.30042136199017L144.17803365384614,192.50178697399343L145.0114326923077,176.42273759221254L145.84483173076924,186.2427066320691L147.51162980769232,178.2475731751033L148.34502884615387,182.06726272626963L149.1784278846154,191.15647324397716L150.01182692307694,207.10535027786824L150.8452259615385,216.4299960045302L151.678625,216.7333838026693L152.51202403846153,200.75064599917155L154.1788221153846,194.11128219687436L155.01222115384616,195.9351691670626L155.8456201923077,205.88419699991204L156.67901923076923,205.02069003934338L157.51241826923078,206.33526629818283L158.34581730769233,183.34211887009621L160.0126153846154,188.3169888513546L160.84601442307692,198.40379560573464L161.67941346153845,202.96582190384606L162.5128125,194.597200954299L163.34621153846155,205.94363425513555L164.1796105769231,210.60166059458524L165.01300961538462,207.18826675012272L166.67980769230772,208.65815311190227L167.51320673076924,214.5912862788642L168.34660576923076,204.2291524130705L169.1800048076923,191.72032218209517L170.01340384615384,189.81308804650075L170.84680288461539,205.75720716495695L171.68020192307694,211.5092257017655L173.347,198.02385448742487L174.18039903846156,196.67763707396534L175.01379807692308,200.96000968629406L175.84719711538463,207.35586590139638L176.68059615384615,196.99128313641887L177.51399519230768,197.62842904119378L179.18079326923078,196.79151828083602L180.01419230769233,206.35899929400213L180.84759134615385,191.9536462779597L181.6809903846154,202.72343306198252L182.51438942307695,183.58906301610395L183.34778846153847,187.1920459283554L184.18118750000002,192.5904436087507L185.84798557692307,191.56617592985816L186.68138461538462,187.10681282211576L187.51478365384617,172.6599640055253L188.3481826923077,172.52561484995007L189.18158173076924,167.9071627713592L190.0149807692308,170.79022863968322L191.68177884615386,174.06479444343313L192.5151778846154,194.6552127129145L193.3485769230769,194.2455368125225L194.18197596153846,197.78312036377895L195.015375,199.0135725381933L195.84877403846156,189.70827069220712L196.68217307692308,186.19292043330933L198.34897115384618,172.00235862900414L199.1823701923077,191.78174614053728L200.01576923076925,177.84819666350938L200.8491682692308,188.0906060779396L201.6825673076923,203.8477224114122L202.51596634615385,209.80164841826252L203.3493653846154,192.8460675447116L204.18276442307692,166.45282459868568L205.01616346153847,185.85576439269533L205.84956250000002,185.7596334225028L206.68296153846154,178.08627507405015L207.5163605769231,175.13889288256482L208.34975961538464,170.6938101634378L209.18315865384616,175.18264269341998L210.84995673076924,171.35076631571832L211.68335576923076,144.40034321228254L212.5167548076923,163.91914656050756L213.35015384615386,143.85077514740476L214.1835528846154,144.4893130244373L215.01695192307693,150.79783020306976L215.85035096153848,161.55410785847516L217.51714903846153,156.45621405387095L218.35054807692308,160.2017344900618L219.18394711538463,169.3525639535179L220.01734615384615,167.572219282857L220.8507451923077,178.79752346424547L221.68414423076925,167.1332179817455L223.35094230769232,161.10806910234075L224.18434134615387,166.58513165814108L225.0177403846154,173.60159980278667L225.85113942307692,192.56924125882858L226.68453846153847,192.95477898279552L227.5179375,178.7412996762577L228.35133653846154,158.51384983342388L230.01813461538464,168.557941603749L230.85153365384616,167.12614059294597L231.6849326923077,145.66345812387468L232.51833173076926,164.8956033319664L233.35173076923078,168.01342994911064L234.1851298076923,174.954876397506L235.85192788461538,177.9133214480414L236.68532692307693,185.93282489498856L237.51872596153848,193.47417585842055L238.352125,179.74467876588645L239.18552403846155,174.78508839509098L240.0189230769231,173.38789032241422L240.85232211538462,178.87980737968715L242.5191201923077,186.4881721831427L243.35251923076922,175.9129185813904L244.18591826923077,173.98443604975378L245.01931730769232,183.0474131226705L245.85271634615387,195.12336999019976L246.6861153846154,183.0742565725704L247.51951442307694,174.7042085862831L249.1863125,175.15917151153147L250.01971153846156,176.2429347382787L250.8531105769231,194.73513741970874L251.6865096153846,199.43234767246733L252.51990865384616,183.91637196458473L253.3533076923077,195.25661983758468L255.02010576923078,197.21553774676877L255.85350480769233,199.4938754256695L256.6869038461539,196.87282232062793L257.52030288461543,188.55202602634898L258.3537019230769,176.73808177842736L259.1871009615385,181.8865394942008L260.0205,187.36849357160187L261.68729807692307,187.98368755582322L262.5206971153846,174.16632086835318L263.35409615384617,176.63680429062453L264.1874951923077,173.60530706167935L265.0208942307693,164.80043811274007L265.85429326923077,157.05320483846924L267.52109134615387,160.787716093084L268.35449038461536,162.5972634194816L269.1878894230769,152.64863548190547L270.02128846153846,170.20064572599222L270.8546875,163.35046215279914L271.6880865384615,156.796778095309L272.5214855769231,155.06547447793332L274.18828365384616,158.10372579546362L275.0216826923077,170.43632242948763L275.85508173076926,163.10004190129607L276.68848076923075,162.6475090809022L277.52187980769236,167.82069963697717L278.35527884615385,170.98406192034955L280.02207692307695,181.30522242290064L280.85547596153845,184.04237781307472L281.688875,177.51004824444476L282.52227403846155,179.62854592206966L283.3556730769231,176.38146132908L284.1890721153846,180.63300230353119L285.0224711538462,189.86125329404496L286.6892692307693,179.99306900065795L287.5226682692308,183.322616061141L288.3560673076923,166.23105203821456L289.1894663461539,160.6847450255207L290.0228653846154,152.3780643971077L290.85626442307694,150.05384003190068L291.6896634615385,151.8677785166176L293.35646153846153,161.8173472425186L294.18986057692314,162.93015599057136L295.02325961538463,154.81081011655962L295.8566586538461,161.39731672026537L296.69005769230773,169.1526622514992L297.5234567307692,177.60955082939483L299.1902548076923,189.75329686065365L300.0236538461539,180.6524757690818L300.85705288461537,186.65410486147354L301.690451923077,181.79701633027523L302.52385096153847,181.97544680022L303.35725,188.06247218678075L304.1906490384616,190.1506277288775L305.8574471153846,187.52711301122787L306.69084615384617,179.44871488417L307.5242451923077,178.78870809716867L308.3576442307692,171.17958385691773L309.1910432692308,170.8364525541409L310.0244423076923,173.56752588022215L311.6912403846154,164.76765927355564L312.5246394230769,152.22014715918547L313.35803846153846,173.00615520784444L314.1914375,165.23547668641325L315.02483653846156,152.35717692167864L315.85823557692305,149.61776547307556L316.69163461538466,165.8310679523634L318.3584326923077,152.04109825025918L319.19183173076925,155.3926253604745L320.0252307692308,164.03731633312637L320.8586298076923,164.10228329352816L321.69202884615385,168.70382290275265L322.5254278846154,159.6162492012463L323.3588269230769,163.43470406227203L324.1922259615385,159.38426125979163L325.025625,159.6172407158359L325.8590240384616,155.08221726783978L326.6924230769231,147.58318150104407L327.52582211538464,160.5513902747313L328.3592211538462,153.30122191610013L329.1926201923077,160.26471625309432L330.8594182692308,149.8230754590506L331.69281730769234,145.9606011805817L332.52621634615383,146.51295548068788L333.35961538461544,163.4118803059298L334.19301442307693,163.73655655117264L335.0264134615385,147.53027171451708L335.85981250000003,135.5851388384433L337.5266105769231,138.82073603845825L338.3600096153846,167.01987168695842L339.1934086538462,153.959264498788L340.02680769230767,162.53405296196811L340.8602067307693,158.9622391807453L341.69360576923077,174.13694604242343L343.3604038461539,160.72490403495928L344.1938028846154,159.96852092490212L345.0272019230769,164.05993527578687L345.86060096153847,166.9875774908505L346.694,190.2458021606073L347.5273990384615,187.9608715576966L348.3607980769231,169.3723037522856L350.02759615384616,177.0542159916058L350.8609951923077,168.49534285790293L351.69439423076926,170.1973721118365L352.52779326923076,165.1929136489785L353.3611923076923,186.9894486364696L354.19459134615386,177.86233558914904L355.86138942307696,172.94269539035466L356.69478846153845,165.84627557466692L357.52818750000006,177.23437526148714L358.36158653846155,178.2424193997512L359.1949855769231,168.92175847883993L360.02838461538465,177.00680545605803L360.8617836538462,168.89499751669717L362.52858173076925,167.66463065113157L363.3619807692308,179.13601558346866L364.1953798076923,169.37478205922835L365.0287788461539,167.46310683268462L365.8621778846154,158.52619595792788L366.69557692307694,146.53223539193607L367.5289759615385,153.68153473695202L369.19577403846154,166.9315325237915L370.0291730769231,172.15039142793046L370.86257211538464,174.3549975571571L371.69597115384613,170.66604643926252L372.52937019230774,162.64278320311644L373.36276923076923,183.36860117339572L375.02956730769233,151.61239597930603L375.8629663461539,152.97536914428525L376.6963653846154,165.49973476934707L377.529764423077,164.78366781676772L378.3631634615385,156.77549505753296L379.19656249999997,159.97069581025627L380.0299615384616,157.5537630316046L381.6967596153846,163.32094687281614L382.5301586538462,152.7428978152587L383.3635576923077,165.67571296537997L384.1969567307692,158.49041951405056L385.0303557692308,143.55030860845477L385.8637548076923,155.16259115821651L387.5305528846154,155.26089175395092L388.3639519230769,148.94359173368565L389.1973509615385,138.42560791089824L390.03075,151.13871761112225L390.86414903846156,136.54328979620624L391.6975480769231,144.78398570837152L392.53094711538466,157.55177932632907L394.1977451923077,142.74640847714514L395.03114423076926,146.67389555218878L395.86454326923075,138.0737390087628L396.69794230769236,140.4030416993251L397.53134134615385,137.40549224066436L398.3647403846154,149.5714542189104L400.0315384615385,129.01184586915548L400.8649375,126.97137660006588L401.6983365384616,125.04546445898163L402.5317355769231,113.42045298670898L403.3651346153846,128.74615006757878L404.1985336538462,124.18112008917194L405.0319326923077,144.25992317248105L406.6987307692308,145.12685821562238L407.53212980769234,144.983681559419L408.36552884615384,137.23431596588412L409.19892788461544,131.28177933274497L410.03232692307694,140.08815364904478L410.86572596153843,146.87723714232806L411.69912500000004,127.27379271976368L413.3659230769231,128.94754754856558L414.19932211538463,123.51935107959508L415.0327211538462,112.96991806658026L415.8661201923077,114.72448911407739L416.6995192307693,125.19835834983476L417.5329182692308,135.18107965121754L419.1997163461539,154.4193886430865L420.03311538461537,163.8370031733397L420.8665144230769,159.6737800951252L421.6999134615385,158.9054886839062L422.5333125,158.7953626836103L423.3667115384615,133.92263224232767L424.2001105769231,141.6726174567654L425.8669086538462,155.73985700614344L426.7003076923077,152.19837322875114L427.5337067307692,169.11303472267142L428.3671057692308,173.23568101731868L429.2005048076923,164.29968712652482L430.03390384615386,166.90320523296649L431.70070192307696,152.96444417147754L432.53410096153846,153.7833526550268L433.36750000000006,160.75827781310883L434.20089903846156,186.12479002923493L435.03429807692305,182.97985418111517L435.86769711538466,175.35602410636602L436.70109615384615,190.76855724336065L438.36789423076925,194.2357383550089L439.2012932692308,180.92022169952878L440.0346923076923,187.81387202575974L440.8680913461539,172.63512565991388L441.7014903846154,169.03749138614197L442.53488942307695,165.10362658878563L443.3682884615385,164.42668036051828L444.2016875,185.16289478755937L445.03508653846154,175.66008465339905L445.8684855769231,175.10275310069423L446.70188461538464,175.76804423763411L447.53528365384614,176.83031691174148L448.36868269230774,161.0821218537913L449.20208173076924,164.18774795816103L450.86887980769234,177.66405840726148L451.70227884615383,164.88726240641745L452.5356778846154,173.3198487463407L453.36907692307693,165.38853026526053L454.2024759615385,148.73238327044376L455.035875,147.92393781545638L455.8692740384616,143.68099886379366L457.5360721153847,137.40344210188624L458.3694711538462,148.57365003896376L459.2028701923077,150.7270646647967L460.0362692307693,169.2165697365815L460.8696682692308,173.8151204715062L461.7030673076923,169.09764416197274L463.3698653846154,170.6267673697829L464.2032644230769,175.31393449108364L465.0366634615385,188.64198791226082L465.8700625,174.10675269150934L466.70346153846157,155.51148495942874L467.5368605769231,162.07417569957488L468.3702596153846,150.1220976591248L470.0370576923077,158.14359628519253L470.87045673076926,165.69274062888323L471.70385576923076,163.1151363995264L472.53725480769236,160.89668403545556L473.37065384615386,160.5004041819545L474.2040528846154,169.41323419821893L475.8708509615385,168.01959894585193L476.70425,163.82957741153785L477.53764903846155,157.80837994098198L478.3710480769231,169.54897533702572L479.2044471153846,160.20344510822127L480.0378461538462,151.7865174433507L480.8712451923077,155.6957867070586L482.5380432692308,172.34969940053725L483.37144230769235,177.94732341687265L484.20484134615384,166.09570293379056L485.0382403846154,168.5588658520712L485.87163942307694,160.37590850050054L486.70503846153844,152.161516474812L487.53843750000004,145.9499157900386L489.20523557692314,155.98998549748097L490.03863461538464,155.14556720079162L490.8720336538462,168.74186249149545L491.70543269230774,166.80855992857244L492.53883173076923,172.32326820506825L493.3722307692308,178.51180727212136L495.0390288461539,191.5940877024045L495.8724278846154,182.64056799314676L496.705826923077,184.15834938150005L497.5392259615385,172.23817465779L498.372625,167.2158845437178L499.2060240384616,164.5790253424213L500.03942307692313,165.12969190579048L501.7062211538462,170.80906026066177L502.5396201923077,174.15539729734758L503.3730192307692,166.55376274669467L504.2064182692308,177.29411668986657L505.0398173076923,157.78850083158758L505.87321634615387,168.3808401382348L507.54001442307697,183.2038877270449L508.37341346153846,175.63248940756893L509.2068125,177.4489894941507L510.04021153846156,176.53967719207554L510.87361057692306,172.80165677148312L511.70700961538466,157.14365077065358L512.5404086538462,159.92676997848508L514.2072067307693,157.0247964739888L515.0406057692309,157.1278890156799L515.8740048076924,165.76815894906045L516.7074038461539,145.47455763139916L517.5408028846155,152.27791580747723L518.374201923077,151.87632521385646L520.041,144.92723947442389L520.8743990384615,162.74853428727477L521.707798076923,154.19122038519038L522.5411971153846,140.13706051887465L523.3745961538461,131.83002800850903L524.2079951923077,140.6978758901884L525.0413942307692,152.777194746963L526.7081923076923,156.4985844949674L527.5415913461538,156.3582318381344L528.3749903846154,168.05154066538063L529.2083894230769,174.8110958571548L530.0417884615385,180.58523473393808L530.8751875,174.1826239692284L531.7085865384615,170.19835558576068L533.3753846153846,153.7205911356768L534.2087836538461,172.48654031983378L535.0421826923077,172.01383811452806L535.8755817307692,169.33085132808776L536.7089807692307,168.86692196272588L537.5423798076923,185.38800077285038L539.2091778846154,183.32512919651865L540.0425769230769,184.57967561412292L540.8759759615385,190.67992894686324L541.709375,189.74082495234646L542.5427740384615,171.90643164234697L543.376173076923,170.48201998343472L544.2095721153847,163.7674714708551L545.8763701923077,168.9354183251197L546.7097692307692,156.10133153604679L547.5431682692308,147.72267140392785L548.3765673076923,157.3399199810286L549.2099663461539,171.56574166655497L550.0433653846154,186.6423931124208L551.7101634615385,183.28618310306848L552.5435625,177.8880849839114L553.3769615384615,172.81480073298192L554.2103605769231,167.4021115010888L555.0437596153847,172.1787823120302L555.8771586538462,159.19004872478325L556.7105576923077,155.4414838908351L558.3773557692307,158.24117340792634L559.2107548076924,163.01944244553295L560.0441538461539,162.5022235066671L560.8775528846154,157.75825724547977L561.7109519230769,170.53171242681665L562.5443509615385,165.4671746194811L563.37775,147.84919820430588L564.2111490384616,156.2249307827316L565.0445480769231,142.80156369424833L565.8779471153847,150.05595856160107L566.7113461538462,145.3462562587868L567.5447451923077,149.75382324379746L568.3781442307692,160.25871410720782L569.2115432692308,153.54965684465512L570.8783413461539,142.18992456943954L571.7117403846154,127.9045541068981L572.5451394230769,141.32059778498035L573.3785384615386,145.83237348472923L574.2119375000001,152.84264880702406L575.0453365384616,147.80988066605033L575.8787355769231,157.01559644467417L577.5455336538462,157.44877903735707L578.3789326923078,172.05147840823372L579.2123317307693,139.86139920619513L580.0457307692308,141.9665232344511L580.8791298076924,159.8487535351938L581.7125288461539,156.89462716943575L583.379326923077,151.45674733539357L584.2127259615385,145.8700988417065L585.0461250000001,157.5186141120511L585.8795240384616,164.9045782470972L586.7129230769231,166.28918684388822L587.5463221153846,160.60053825735423L588.3797211538463,144.89679110423347L590.0465192307693,134.08689986293882L590.8799182692308,135.05428357417608L591.7133173076923,147.43033082820114L592.5467163461539,134.26543960613293L593.3801153846155,151.49865893071262L594.213514423077,143.53946559158186L595.8803125000001,150.49426063851843L596.7137115384616,148.31753480209707L597.547110576923,157.0516736446249L598.3805096153847,152.36094574561284L599.2139086538461,150.42144514817338L600.0473076923078,153.08686676084005L600.8807067307692,150.88518531834487L602.5475048076922,148.72950825521593L603.380903846154,158.81641272443082L604.2143028846154,139.74527467730172L605.0477019230769,132.5467085431567L605.8811009615384,135.27895570857632L606.7145,147.91728686966485L607.5478990384617,140.74262566692425L609.2146971153846,123.7391697096435L610.0480961538461,140.0907469785774L610.8814951923077,132.27691265959925L611.7148942307692,147.3919268875483L612.5482932692308,147.95192569429653L613.3816923076923,149.98776913524654L615.0484903846154,135.76375731651578L615.8818894230769,129.7400277918056L616.7152884615384,118.59103449734897L617.5486875,145.37802492153358L618.3820865384616,131.60888722363146L619.2154855769231,136.02781862670003L620.0488846153846,131.73076150886504L621.7156826923077,112.68369542562333L622.5490817307693,123.6187284553252L623.3824807692308,125.34995350385917L624.2158798076923,139.0313417693687L625.0492788461538,147.6514063164023L625.8826778846154,139.432546289231L627.5494759615385,131.34348519134457L628.382875,132.50860095672567L629.2162740384616,130.2528949490354L630.0496730769231,130.83395297792546L630.8830721153846,140.41432563146148L631.7164711538461,146.78951632309082L632.5498701923077,151.61404276606314L634.2166682692308,151.01448858688397L635.0500673076923,144.61727772142564L635.8834663461538,150.15166519395154L636.7168653846154,151.88929287857795L637.550264423077,137.8679287290592L638.3836634615385,130.23751639779522L640.0504615384616,118.65559966716839L640.8838605769231,124.53056268624667L641.7172596153846,136.81083185155515L642.5506586538462,142.735334814465L643.3840576923077,131.10924209249575L644.2174567307693,115.84173600053325L645.0508557692308,114.5550152534775L646.7176538461538,127.66624826239736L647.5510528846155,135.2183899588219L648.384451923077,132.7587667481203L649.2178509615385,140.14838344669934L650.05125,150.2257154521342L650.8846490384615,159.44033899011188L651.7180480769232,153.95524549306612L653.3848461538462,131.35187504343895L654.2182451923077,135.64672062746308L655.0516442307693,123.18989776344073L655.8850432692308,129.43791143638475L656.7184423076924,121.17367009486304L657.5518413461539,128.86359340925347L659.218639423077,134.35512013144887L660.0520384615385,128.05666821941293L660.8854375,130.7212255867991L661.7188365384616,137.3446420394981L662.5522355769232,158.06949521006769L663.3856346153847,151.1171272713043L664.2190336538462,150.11381579149352L665.8858317307692,149.94410528605334L666.7192307692309,152.80398149489454L667.5526298076924,161.09004419326237L668.3860288461539,152.23777801640503L669.2194278846154,137.2067528338095L670.052826923077,158.36209248448574L671.7196250000001,149.05402762102182L672.5530240384616,162.8940567525651L673.386423076923,158.19228083803807L674.2198221153847,160.43137146302797L675.0532211538462,156.11118740520118L675.8866201923076,140.46446828215065L676.7200192307693,154.1858025894686L678.3868173076924,133.68478350477164L679.2202163461538,113.90101696870771L680.0536153846153,116.60837609105539L680.8870144230771,109.3946009771023L681.7204134615386,120.42082906262044L682.5538125,127.12784950869853L683.3872115384615,113.28125354372011L684.220610576923,132.15010762804275L685.0540096153846,129.1841856451443L685.8874086538463,138.36241737514405L686.7208076923077,131.09501741117037L687.5542067307692,135.84271664889135L688.3876057692308,145.60898073040335L689.2210048076923,144.55630071037743L690.8878028846154,121.66345131957766L691.7212019230769,126.32456432202008L692.5546009615385,115.95704668850826L693.388,121.9697362579373L694.2213990384615,125.83753844563967L695.054798076923,125.74349495052181L695.8881971153847,125.41800228444067L697.5549951923077,133.61325195761918L698.3883942307692,146.73348537206095L699.2217932692307,138.45449330758714L700.0551923076923,142.69858208786448L700.8885913461539,144.93026467019914L701.7219903846154,142.98229779951532L703.3887884615385,139.2173186668918L704.2221875,137.5366459812223L705.0555865384615,134.1118205558558L705.8889855769231,110.27282071180936L706.7223846153846,115.63376327872955L707.5557836538462,125.43067659211565L708.3891826923077,126.89921622239993L710.0559807692307,132.87769608475833L710.8893798076924,143.43467619882867L711.7227788461539,138.04467969695833L712.5561778846154,127.15168043271763L713.3895769230769,115.54740265863771L714.2229759615384,104.648500621265L715.8897740384616,130.9423852340057L716.7231730769231,126.74459798508931L717.5565721153846,116.59607059423557L718.3899711538462,101.04286549090007L719.2233701923077,116.4539930931647L720.0567692307693,142.52436752032753L720.8901682692308,134.76301633027103L722.5569663461539,136.32978899026065L723.3903653846154,115.33792629129177L724.2237644230769,101.34331544172656L725.0571634615385,105.46939065256849L725.8905625000001,120.09830405910294L726.7239615384616,124.6496751590539L727.5573605769231,95.94168378297306L729.2241586538462,95.91758107056505L730.0575576923078,92.7883076602834L730.8909567307693,115.38583987164202L731.7243557692308,116.63539778793478L732.5577548076923,116.88514848314499L733.3911538461539,115.1635749500758L735.057951923077,112.32894712458649L735.8913509615385,106.72054034811616L736.7247500000001,101.53865457182542L737.5581490384616,92.56062362078077L738.3915480769231,76.0500634679193L739.2249471153846,92.43989347829388L740.0583461538462,93.36668518670781L741.7251442307693,116.3612620402677L742.5585432692308,117.7643162756743L743.3919423076923,115.7732126444329L744.225341346154,115.16367245970665L745.0587403846155,115.0715882058451L745.892139423077,100.64813109530071L747.5589375,108.45834411636825L748.3923365384616,115.03469717416667L749.2257355769232,117.31606229253715L750.0591346153847,100.26668795332175L750.8925336538462,120.76881542753095L751.7259326923078,98.74153993299157L752.5593317307693,112.54847434940272L754.2261298076924,121.55172460903128L755.059528846154,141.11978897430143L755.8929278846155,125.26001499122962L756.726326923077,130.99173236306459L757.5597259615384,113.61304092337261L758.3931249999999,107.49717104551932L760.0599230769232,111.53787705968465L760.8933221153846,121.33238911829775L761.7267211538461,108.99538739960822L762.5601201923077,110.94311541502533L763.3935192307692,111.04376963964022L764.2269182692309,108.62221866244627L765.0603173076923,103.6496012882067L766.7271153846154,108.62742531353275L767.5605144230769,102.37626979383255L768.3939134615384,117.62791395047763L769.2273125,123.18219641919606L770.0607115384616,119.42584357783599L770.8941105769231,106.05074471786862L771.7275096153846,114.97345647427586L773.3943076923076,114.97094837593923L774.2277067307693,115.93527974944048L775.0611057692308,110.77730722344359L775.8945048076923,107.35422491023805L776.7279038461538,103.13721031540551L777.5613028846154,112.44157782193375L779.2281009615385,112.12931642887801L780.0615,119.78266526117613L780.8948990384615,114.40275917562658L781.7282980769231,94.96209742533851L782.5616971153846,100.71804453715299L783.3950961538462,117.36391868701344L784.2284951923077,116.1616334031667L785.8952932692308,122.03272873981675L786.7286923076923,134.75632838819752L787.5620913461538,121.18743564375832L788.3954903846154,118.05793463759775L789.228889423077,124.84252081775557L790.0622884615385,109.41045244731839L791.7290865384615,110.85928235808016L792.5624855769231,109.62931649024685L793.3958846153847,119.83177311660094L794.2292836538462,120.90912139559536L795.0626826923077,103.65132849938522L795.8960817307693,92.63901011741274L796.7294807692308,109.69884450632003L798.3962788461539,95.10015201527477L799.2296778846154,100.64208736395004L800.063076923077,95.93702470128837L800.8964759615385,85.19442337790196L801.729875,70.30944928430957L802.5632740384615,92.53646747809714L803.3966730769232,80.11155822123331L804.2300721153847,87.48401760485912L805.0634711538462,83.71722345964399L805.8968701923077,93.29228890468451L806.7302692307692,106.17973974702622L807.5636682692308,113.93511504267374L808.3970673076924,123.84580932101441L809.2304663461539,132.22995136205853L810.897264423077,145.09868782773313L811.7306634615385,124.23333251882413L812.5640625000001,123.40666480467013L813.3974615384616,123.45821234308856L814.2308605769231,123.80124619756046L815.0642596153847,104.39697071047965L815.8976586538462,117.85245636224155L817.5644567307693,126.74292815796183L818.3978557692309,119.77841268701341L819.2312548076924,121.80778361989849L820.0646538461539,110.97116827984925L820.8980528846154,85.785045480849L821.7314519230769,95.68277574228546L823.3982500000001,105.60656936077655L824.2316490384616,99.4469343736274L825.0650480769231,100.52157210794108L825.8984471153847,92.90728431395901L826.7318461538462,99.95182379475561L827.5652451923078,108.99064353222447L828.3986442307693,127.89210051803667L830.0654423076924,123.77627288406421L830.8988413461539,105.44224169674709L831.7322403846154,91.54357604120096L832.565639423077,102.97782607516004L833.3990384615386,109.87351467077147L834.2324375000001,110.00018304664417L835.899235576923,111.3599740756265L836.7326346153847,132.3997526033349L837.5660336538463,124.49491623383523L838.3994326923078,112.76006113454757L839.2328317307692,109.17720573285256L840.0662307692307,125.84739699724734L840.8996298076923,101.66656195221394L842.5664278846155,94.01845307607282L843.399826923077,89.82867184157466L844.2332259615386,90.08679086332695L845.066625,104.41329415300594L845.9000240384615,113.03499637400573L846.733423076923,126.52249491506103L847.5668221153846,129.84383706744484L849.2336201923077,105.98925290880187L850.0670192307692,121.3304494045829L850.9004182692307,116.03006890829339L851.7338173076924,111.42123940914435L852.5672163461539,96.3705849845979L853.4006153846154,117.95009073176621L855.0674134615384,114.86039504066291L855.9008125,128.03840949449057L856.7342115384616,113.87896951464681L857.5676105769231,114.01307115174058L858.4010096153846,77.7964097890261L859.2344086538462,91.3374122186305L860.0678076923077,92.30724367720691L861.7346057692308,88.27899983181243L862.5680048076923,77.10940355611058L863.4014038461539,79.1350611807041L864.2348028846154,87.77778221216596L865.0682019230769,90.51845071462866L865.9016009615384,112.94160964895137L867.5683990384616,115.1920041347077L868.4017980769231,116.95158365554792L869.2351971153846,98.27875193588247L870.0685961538461,83.56977628766879L870.9019951923077,96.83889422515661L871.7353942307693,84.89184536993288L872.5687932692308,92.01793093716972L874.2355913461539,98.69522000334187L875.0689903846154,112.73314373601391L875.9023894230769,125.4042236286933L876.7357884615385,117.03239588172441L877.5691875000001,113.93526707310207L878.4025865384616,110.41737522494037L880.0693846153846,105.023891830114L880.9027836538461,99.65849042236856L881.7361826923078,111.72443392932445L882.5695817307693,117.98236342664576L883.4029807692308,106.81000508703397L884.2363798076923,87.74061118108594L885.0697788461539,86.50894088671141L886.736576923077,89.08373166357799L887.5699759615385,74.8835714413841L888.403375,91.43800785506487L889.2367740384616,111.15023854075699L890.0701730769231,104.78500866909123L890.9035721153847,113.47018921227833L891.7369711538462,121.32205015252973L893.4037692307693,118.39149015723235L894.2371682692308,118.14294320729512L895.0705673076923,123.28093860300662L895.9039663461539,123.95994090329977L896.7373653846155,137.3012861591063L897.570764423077,127.20775681305815L899.2375625,111.89639735362266L900.0709615384616,110.83743613963127L900.9043605769232,96.52585747642195L901.7377596153847,91.67271706662305L902.5711586538462,115.82092017731111L903.4045576923077,100.0605143205387L904.2379567307693,90.7026204667129L905.9047548076924,98.77479544490403L906.7381538461539,109.8120101659089L907.5715528846155,109.9200690044119L908.404951923077,106.64429482061588L909.2383509615385,104.27761777066542L910.07175,110.66169255469252L911.7385480769232,91.92407348569637L912.5719471153847,81.75198699404639L913.4053461538462,77.6651811744959L914.2387451923076,72.27649072882677L915.0721442307694,86.11250332401481L915.9055432692309,99.90367674314746L916.7389423076924,89.06302462905907L918.4057403846155,92.49543893311578L919.239139423077,97.72845214669398L920.0725384615386,89.50057145077682L920.9059375,73.62328224729717L921.7393365384615,91.89465688398214L922.5727355769232,106.40480952142119L923.4061346153846,84.90434369014761L924.2395336538461,85.33687643707034L925.0729326923077,77.710273928445L925.9063317307694,82.25433068295402L926.7397307692308,98.86737626723496L927.5731298076923,82.35243394413816L928.4065288461538,82.32628631456228L929.2399278846153,77.93320373453818L930.9067259615385,83.82925911918159L931.740125,63.26455261811533L932.5735240384615,49.92546339256519L933.4069230769231,54.77000564072305L934.2403221153846,52.15239088138205L935.0737211538462,54.19167065858992L935.9071201923077,81.12181480868749L937.5739182692308,97.05568554964123L938.4073173076923,69.65338116824498L939.2407163461538,92.00526364052216L940.0741153846154,90.60925638479348L940.907514423077,88.16584311208534L941.7409134615385,85.95024571507022L943.4077115384615,97.35468508773353L944.241110576923,98.8959683758416L945.0745096153847,109.09491572195678L945.9079086538462,104.18167274046573L946.7413076923077,97.69985050707238L947.5747067307692,91.58325912524765L948.4081057692308,106.48414197824104L950.0749038461539,90.63677979347133L950.9083028846154,59.54573184194382L951.741701923077,79.67585437819685L952.5751009615385,75.23343806738855L953.4085,65.67839228277523L954.2418990384616,71.05767796813522L955.9086971153847,73.39678512560769L956.7420961538462,77.60038639315434L957.5754951923077,80.06621996964094L958.4088942307692,82.35244044227447L959.2422932692309,80.6160147414389L960.0756923076924,80.92189865504403L960.9090913461539,62.70386050141674L962.5758894230769,45.85348680255906L963.4092884615385,72.51109802229067L964.2426875000001,68.03141886891639L965.0760865384616,84.77160019219943L965.9094855769231,91.0937141283812L966.7428846153847,88.19831394659253L967.5762836538462,76.50292625451155L969.2430817307693,91.4915020244761L970.0764807692308,74.43724140430153L970.9098798076924,77.72974794927036L971.7432788461539,97.08213542117356L972.5766778846154,107.76709838120352L973.4100769230769,96.27234986429336L975.0768750000001,95.31372821691586L975.9102740384616,114.23690748272114L976.7436730769231,75.76933926298884L977.5770721153846,78.05020163111688L978.4104711538463,91.96189608446444L979.2438701923078,107.23478825492668L980.0772692307693,88.74482917549018L981.7440673076924,95.01084391134063L982.5774663461539,75.42038533443463L983.4108653846155,84.35977801971188L984.244264423077,91.47601838246511L985.0776634615385,74.9316073266796L985.9110625000001,81.49223905929715L987.5778605769231,82.67836543875214L988.4112596153847,85.26458118850357L989.2446586538463,73.50006577548007L990.0780576923078,63.4584989633756L990.9114567307693,69.34986947893681L991.7448557692308,80.40105833999064L992.5782548076924,97.1880279381578L994.2450528846155,70.89141999877522L995.078451923077,79.87222957291424L995.9118509615384,75.37140674399267L996.74525,69.62610996131261L997.5786490384615,91.95853696881227L998.4120480769232,79.78156863819653L1000.0788461538463,88.89257101995403L1000.9122451923078,83.59517701138648L1001.7456442307692,86.40414289913336L1002.5790432692307,81.85584330885665L1003.4124423076923,78.62803001282049L1004.245841346154,71.01689837064804L1005.0792403846154,102.99561757616081L1006.7460384615384,83.08305385970205L1007.5794375,104.9224589637704L1008.4128365384616,86.15122450342501L1009.2462355769231,94.45899240265723L1010.0796346153846,81.54806094859306L1010.9130336538461,79.95428098138727L1011.7464326923077,88.97912289994889L1013.4132307692308,74.5381443891799L1014.2466298076923,75.07325813415899L1015.0800288461539,39.84855593945535L1015.9134278846154,24.75872007592094L1016.7468269230769,46.183385935526516L1017.5802259615384,61.276699652136244L1019.2470240384616,71.89802751731526L1020.0804230769231,65.15873785133151L1020.9138221153846,86.91137486208471L1021.7472211538461,68.02998824224268L1022.5806201923078,80.00804111225641L1023.4140192307693,78.10062605895538L1024.2474182692308,99.1471796057101L1025.914216346154,93.14118760554844L1026.7476153846155,77.13489297307841" style="fill: none;" fill="none"></path></g></g></g></g><g opacity="0.2"><g><g><g><path stroke="rgb(0, 119, 187)" stroke-width="2px" d="M84.17330288461538,349.5910070473949L85.00670192307692,283.62815278371176L85.84010096153847,269.94620787302654L86.6735,223.89289846420286L87.50689903846154,250.5994860013326L88.34029807692308,225.20578924814856L89.17369711538461,238.1352149645487L90.8404951923077,165.924879582723L91.67389423076924,183.4091491063436L92.50729326923077,162.57256123224892L93.34069230769231,202.8091660817464L94.17409134615384,238.30437628428137L95.0074903846154,218.59925772349038L95.84088942307693,211.12332210540774L97.5076875,199.60412534077966L98.34108653846154,225.5434886932373L99.17448557692309,164.27185649871825L100.00788461538463,214.50289322535195L100.84128365384615,211.05334456761682L101.6746826923077,195.29257901509607L103.34148076923077,209.41279735565183L104.17487980769232,203.6173533121745L105.00827884615384,179.4901553153992L105.84167788461538,162.75219701131186L106.67507692307693,205.31076418558757L107.50847596153847,189.12114502588906L108.34187500000002,221.77357018788655L110.00867307692307,213.33573404947913L110.84207211538462,181.79130055109658L111.67547115384616,168.90459960301718L112.5088701923077,183.661159324646L113.34226923076923,180.90822213490804L114.17566826923077,184.0543350537618L115.84246634615386,194.3667758305868L116.67586538461539,143.1112195332845L117.50926442307693,221.32509794235227L118.34266346153846,197.104972076416L119.1760625,155.11243317921958L120.00946153846155,191.93045733769736L120.84286057692309,172.30039774576824L122.50965865384616,198.72226934432985L123.3430576923077,195.47011750539144L124.17645673076925,168.0820669174194L125.00985576923078,173.70226151148478L125.8432548076923,206.13779106140134L126.67665384615385,174.98221886952717L127.51005288461539,167.1396292368571L129.17685096153846,221.51181656519572L130.01025,190.36802514394128L130.84364903846154,202.82686719894411L131.67704807692309,158.51581751505535L132.51044711538464,185.79364658991494L133.34384615384616,179.54062207539874L135.01064423076923,185.2491424878438L135.84404326923075,202.61373472213745L136.6774423076923,198.62251030604045L137.51084134615385,189.59171670277914L138.34424038461538,190.43721170425414L139.17763942307693,191.7729449590047L140.01103846153848,190.27558863957722L141.67783653846155,180.63537085851033L142.5112355769231,158.3909868876139L143.34463461538465,220.00242780049643L144.17803365384614,191.3038353919983L145.0114326923077,152.30416351954142L145.84483173076924,200.97266019185383L147.51162980769232,166.25487298965453L148.34502884615387,187.7967970530192L149.1784278846154,204.79028902053835L150.01182692307694,231.02866582870485L150.8452259615385,230.4169645945231L151.678625,217.1884654998779L152.51202403846153,176.77653929392494L154.1788221153846,184.15223649342857L155.01222115384616,198.670999622345L155.8456201923077,220.80773874918623L156.67901923076923,203.7254295984904L157.51241826923078,208.30713068644206L158.34581730769233,148.85239772796632L160.0126153846154,195.7792938232422L160.84601442307692,213.5340057373047L161.67941346153845,209.8088613510132L162.5128125,182.0442695299784L163.34621153846155,222.96328420639037L164.1796105769231,217.58870010375978L165.01300961538462,202.06817598342894L166.67980769230772,210.8629826545715L167.51320673076924,223.490986029307L168.34660576923076,188.68595161437986L169.1800048076923,172.95707683563234L170.01340384615384,186.95223684310912L170.84680288461539,229.6733858426412L171.68020192307694,220.13725350697837L173.347,177.79579766591388L174.18039903846156,194.65831095377604L175.01379807692308,207.38356860478723L175.84719711538463,216.9496502240499L176.68059615384615,181.44440898895266L177.51399519230768,198.58414789835615L179.18079326923078,195.53615214029946L180.01419230769233,220.71022081375122L180.84759134615385,170.34561675389608L181.6809903846154,218.8781132380168L182.51438942307695,154.887507947286L183.34778846153847,192.5965202967326L184.18118750000002,200.68804012934368L185.84798557692307,190.02977441151938L186.68138461538462,180.41776816050213L187.51478365384617,150.98969078063965L188.3481826923077,172.32409111658734L189.18158173076924,160.97948465347292L190.0149807692308,175.1148274421692L191.68177884615386,178.97664314905802L192.5151778846154,225.54084011713667L193.3485769230769,193.63102296193438L194.18197596153846,203.08949569066363L195.015375,200.85925079981484L195.84877403846156,175.75031792322795L196.68217307692308,180.91989504496257L198.34897115384618,150.71651592254636L199.1823701923077,221.45082740783693L200.01576923076925,156.94787244796754L200.8491682692308,203.45422019958494L201.6825673076923,227.48339691162107L202.51596634615385,218.73253742853797L203.3493653846154,167.41269623438518L204.18276442307692,126.86296017964679L205.01616346153847,214.96017408370972L205.84956250000002,185.61543696721395L206.68296153846154,166.57623755137126L207.5163605769231,170.7178195953369L208.34975961538464,164.02618608474734L209.18315865384616,181.91589148839313L210.84995673076924,165.60295174916587L211.68335576923076,103.9747085571289L212.5167548076923,193.19735158284504L213.35015384615386,113.74821802775062L214.1835528846154,145.44711983998616L215.01695192307693,160.2606059710185L215.85035096153848,177.68852434158327L217.51714903846153,148.8093733469645L218.35054807692308,165.82001514434813L219.18394711538463,183.07880814870197L220.01734615384615,164.90170227686565L220.8507451923077,195.63547973632814L221.68414423076925,149.6367597579956L223.35094230769232,152.07034578323362L224.18434134615387,174.80072549184166L225.0177403846154,184.12630201975503L225.85113942307692,221.02070344289143L226.68453846153847,193.53308556874595L227.5179375,157.421080716451L228.35133653846154,128.17267506917318L230.01813461538464,183.62407925923668L230.85153365384616,164.97843907674155L231.6849326923077,113.46943442026776L232.51833173076926,193.743821144104L233.35173076923078,172.69016987482706L234.1851298076923,185.36704607009887L235.85192788461538,182.35098902384442L236.68532692307693,197.96208006540934L237.51872596153848,204.78620230356853L238.352125,159.15043312708536L239.18552403846155,167.3457028388977L240.0189230769231,171.29209321339926L240.85232211538462,187.11768296559654L242.5191201923077,197.90071938832602L243.35251923076922,160.05003817876178L244.18591826923077,171.09171225229898L245.01931730769232,196.64187873204548L245.85271634615387,213.23730529149373L246.6861153846154,165.0005864461263L247.51951442307694,162.1491366068522L249.1863125,175.8416158994039L250.01971153846156,177.86857957839965L250.8531105769231,222.47344144185388L251.6865096153846,206.47816305160524L252.51990865384616,160.64240840276085L253.3533076923077,212.26699164708452L255.02010576923078,200.1539146105448L255.85350480769233,202.9113819440206L256.6869038461539,192.94124266306562L257.52030288461543,176.07083158493043L258.3537019230769,159.01716540654502L259.1871009615385,189.60922606786096L260.0205,195.59142468770347L261.68729807692307,188.90647853215535L262.5206971153846,153.44027083714803L263.35409615384617,180.34252942403157L264.1874951923077,169.05806121826174L265.0208942307693,151.59313468933107L265.85429326923077,145.432354927063L267.52109134615387,166.3894829750061L268.35449038461536,165.31158440907797L269.1878894230769,137.7256935755412L270.02128846153846,196.52866109212243L270.8546875,153.07518679300944L271.6880865384615,146.9662520090739L272.5214855769231,152.4685190518697L274.18828365384616,162.66110277175903L275.0216826923077,188.93521738052368L275.85508173076926,152.0956211090088L276.68848076923075,161.96870985031126L277.52187980769236,175.58048547108967L278.35527884615385,175.72910534540813L280.02207692307695,196.78696317672728L280.85547596153845,188.1481108983358L281.688875,167.71155389149982L282.52227403846155,182.80629243850706L283.3556730769231,171.51083443959556L284.1890721153846,187.0103137652079L285.0224711538462,203.70362977981569L286.6892692307693,165.1907925605774L287.5226682692308,188.31693665186566L288.3560673076923,140.59370600382488L289.1894663461539,152.3652845064799L290.0228653846154,139.9180434544881L290.85626442307694,146.5675034840902L291.6896634615385,154.58868624369302L293.35646153846153,176.74170033137005L294.18986057692314,164.59936911265055L295.02325961538463,142.63179130554198L295.8566586538461,171.27707662582395L296.69005769230773,180.78568054835L297.5234567307692,190.29488369623823L299.1902548076923,207.96891590754194L300.0236538461539,167.00124413172404L300.85705288461537,195.65654850006104L301.690451923077,174.51138353347778L302.52385096153847,182.2430925051371L303.35725,197.1930102666219L304.1906490384616,193.28286104202272L305.8574471153846,183.5918409347534L306.69084615384617,167.33111769358317L307.5242451923077,177.79869791666664L308.3576442307692,159.76589749654136L309.1910432692308,170.32175559997557L310.0244423076923,177.66413586934408L311.6912403846154,151.5678593635559L312.5246394230769,133.3988789876302L313.35803846153846,204.18516728083296L314.1914375,153.57945890426635L315.02483653846156,133.03972727457682L315.85823557692305,145.50864830017088L316.69163461538466,190.15102167129515L318.3584326923077,131.35614369710288L319.19183173076925,160.41991602579753L320.0252307692308,177.0043527921041L320.8586298076923,164.19973373413086L321.69202884615385,175.60613231658937L322.5254278846154,145.98488864898684L323.3588269230769,169.16238635381063L324.1922259615385,153.30859705607094L325.025625,159.96670989990236L325.8590240384616,148.27968209584554L326.6924230769231,136.33462785085044L327.52582211538464,180.00370343526203L328.3592211538462,142.42596937815347L329.1926201923077,170.70995775858563L330.8594182692308,134.160614267985L331.69281730769234,140.16688976287844L332.52621634615383,147.34148693084717L333.35961538461544,188.76026754379274L334.19301442307693,164.2235709190369L335.0264134615385,123.22084445953368L335.85981250000003,117.66743952433268L337.5266105769231,143.6741318384806L338.3600096153846,209.31857515970864L339.1934086538462,134.3683537165324L340.02680769230767,175.39623565673827L340.8602067307693,153.60451850891116L341.69360576923077,196.89900633494062L343.3604038461539,140.60684102376302L344.1938028846154,158.8339462598165L345.0272019230769,170.19705680211388L345.86060096153847,171.37904081344607L346.694,225.13313916524248L347.5273990384615,184.53347565333047L348.3607980769231,141.48945204416913L350.02759615384616,188.57708435058595L350.8609951923077,155.65703315734862L351.69439423076926,172.7504159927368L352.52779326923076,157.68622595469157L353.3611923076923,219.6842511177063L354.19459134615386,164.17166601816814L355.86138942307696,165.5632350921631L356.69478846153845,155.20164585113525L357.52818750000006,194.31652479171754L358.36158653846155,179.75448560714722L359.1949855769231,154.94076709747316L360.02838461538465,189.13437592188518L360.8617836538462,156.72728560765586L362.52858173076925,165.8190803527832L363.3619807692308,196.34309298197428L364.1953798076923,154.73293177286786L365.0287788461539,164.59559399286906L365.8621778846154,145.12082964579264L366.69557692307694,128.54129454294838L367.5289759615385,164.40548375447594L369.19577403846154,186.80652920405072L370.0291730769231,179.978679784139L370.86257211538464,177.66190675099693L371.69597115384613,165.13261976242063L372.52937019230774,150.6078883488973L373.36276923076923,214.4573281288147L375.02956730769233,103.9780881881714L375.8629663461539,155.01982889175417L376.6963653846154,184.2862832069397L377.529764423077,163.70956738789874L378.3631634615385,144.76323591868083L379.19656249999997,164.76349693934122L380.0299615384616,153.9283638636271L381.6967596153846,171.9717226346334L382.5301586538462,136.8758242289225L383.3635576923077,185.07493569056192L384.1969567307692,147.7124793370565L385.0303557692308,121.14014225006105L385.8637548076923,172.5810149828593L387.5305528846154,155.4083426475525L388.3639519230769,139.46764170328777L389.1973509615385,122.64863217671711L390.03075,170.20838216145836L390.86414903846156,114.65014807383221L391.6975480769231,157.1450295766195L392.53094711538466,176.70346975326538L394.1977451923077,120.53835220336913L395.03114423076926,152.56512616475425L395.86454326923075,125.17350419362384L396.69794230769236,143.89699573516845L397.53134134615385,132.90916805267335L398.3647403846154,167.8203971862793L400.0315384615385,98.17243334452309L400.8649375,123.9106726964315L401.6983365384616,122.15659624735514L402.5317355769231,95.98293577829998L403.3651346153846,151.73469568888345L404.1985336538462,117.3335751215617L405.0319326923077,174.37812779744468L406.6987307692308,146.42726078033445L407.53212980769234,144.7689165751139L408.36552884615384,125.61026757558187L409.19892788461544,122.35297438303627L410.03232692307694,153.29771512349447L410.86572596153843,157.060862382253L411.69912500000004,97.86862608591713L413.3659230769231,131.45817979176837L414.19932211538463,115.37705637613931L415.0327211538462,97.14576854705808L415.8661201923077,117.3563456853231L416.6995192307693,140.90916220347088L417.5329182692308,150.15516160329184L419.1997163461539,183.2768521308899L420.03311538461537,177.9634249687195L420.8665144230769,153.42894547780355L421.6999134615385,157.75305156707765L422.5333125,158.6301736831665L423.3667115384615,96.61353658040366L424.2001105769231,153.29759527842202L425.8669086538462,176.84071633021034L426.7003076923077,146.88614756266276L427.5337067307692,194.48502696355183L428.3671057692308,179.41965045928953L429.2005048076923,150.89569629033406L430.03390384615386,170.808482392629L431.70070192307696,132.056302579244L432.53410096153846,155.01171538035072L433.36750000000006,171.22066555023196L434.20089903846156,224.17455835342406L435.03429807692305,178.26245040893554L435.86769711538466,163.92027899424232L436.70109615384615,213.88735694885253L438.36789423076925,199.4365100224813L439.2012932692308,160.94694671630862L440.0346923076923,198.15434751510622L440.8680913461539,149.86700611114503L441.7014903846154,163.6410399754842L442.53488942307695,159.20282939275108L443.3682884615385,163.41126101811727L444.2016875,216.26721642812095L445.03508653846154,161.40586945215858L445.8684855769231,174.26675577163695L446.70188461538464,176.76598094304404L447.53528365384614,178.4237259229024L448.36868269230774,137.45982926686605L449.20208173076924,168.84618711471558L450.86887980769234,197.87852408091226L451.70227884615383,145.7220684051514L452.5356778846154,185.96872825622557L453.36907692307693,153.49155254364013L454.2024759615385,123.74816277821861L455.035875,146.71126963297525L455.8692740384616,137.31659043629963L457.5360721153847,127.98710695902508L458.3694711538462,165.3289619445801L459.2028701923077,153.95718660354612L460.0362692307693,196.95082734425864L460.8696682692308,180.71294657389325L461.7030673076923,162.02142969767254L463.3698653846154,172.9204521814982L464.2032644230769,182.3446851730347L465.0366634615385,208.63406804402666L465.8700625,152.3038998603821L466.70346153846157,127.6185833613078L467.5368605769231,171.91821180979412L468.3702596153846,132.19398059844968L470.0370576923077,170.17584422429405L470.87045673076926,177.01645714441935L471.70385576923076,159.24873005549114L472.53725480769236,157.56900548934937L473.37065384615386,159.90598440170288L474.2040528846154,182.78247922261556L475.8708509615385,165.92914606730142L476.70425,157.54454511006674L477.53764903846155,148.7765837351481L478.3710480769231,187.1598684310913L479.2044471153846,146.18514976501467L480.0378461538462,139.16112594604493L480.8712451923077,161.55969060262044L482.5380432692308,197.3305684407552L483.37144230769235,186.3437594413757L484.20484134615384,148.3182722091675L485.0382403846154,172.2536102294922L485.87163942307694,148.10147247314455L486.70503846153844,139.8399284362793L487.53843750000004,136.63251476287843L489.20523557692314,171.05009005864463L490.03863461538464,153.87893975575764L490.8720336538462,189.1363054275513L491.70543269230774,163.90860608418785L492.53883173076923,180.595330619812L493.3722307692308,187.794615872701L495.0390288461539,211.21750834782915L495.8724278846154,169.21028842926023L496.705826923077,186.43502146402994L497.5392259615385,154.35791257222496L498.372625,159.68244937260948L499.2060240384616,160.6237365404765L500.03942307692313,165.95569175084432L501.7062211538462,179.32811279296874L502.5396201923077,179.1749028523763L503.3730192307692,155.15131092071533L504.2064182692308,193.40464760462442L505.0398173076923,128.5300770441691L505.87321634615387,184.26934909820557L507.54001442307697,205.43845911026L508.37341346153846,164.2753919283549L509.2068125,180.17373962402343L510.04021153846156,175.17570873896278L510.87361057692306,167.1946261405945L511.70700961538466,133.6566417694092L512.5404086538462,164.10144879023233L514.2072067307693,152.67183621724445L515.0406057692309,157.28252782821653L515.8740048076924,178.72856384913126L516.7074038461539,115.03415565490724L517.5408028846155,162.48295307159424L518.374201923077,151.27393932342528L520.041,134.50361086527505L520.8743990384615,189.4804765065511L521.707798076923,141.3552495320638L522.5411971153846,119.05582071940103L523.3745961538461,119.36947924296061L524.2079951923077,153.99964771270754L525.0413942307692,170.89617303212486L526.7081923076923,162.08066911697387L527.5415913461538,156.14770285288495L528.3749903846154,185.59150390625L529.2083894230769,184.9504286448161L530.0417884615385,189.24644304911294L530.8751875,164.5787078221639L531.7085865384615,164.2219530105591L533.3753846153846,129.00394446055094L534.2087836538461,200.6354640960693L535.0421826923077,171.30478480656944L535.8755817307692,165.30637114842733L536.7089807692307,168.171027914683L537.5423798076923,210.1696189880371L539.2091778846154,180.2308218320211L540.0425769230769,186.46149524052936L540.8759759615385,199.83030894597368L541.709375,188.33216896057127L542.5427740384615,145.1548416773478L543.376173076923,168.3454024950663L544.2095721153847,153.6956487019857L545.8763701923077,176.6873386065165L546.7097692307692,136.85020135243735L547.5431682692308,135.1546812057495L548.3765673076923,171.7657928466797L549.2099663461539,192.90447419484457L550.0433653846154,209.2573702812195L551.7101634615385,178.2518680890401L552.5435625,169.79093780517576L553.3769615384615,165.2048743565877L554.2103605769231,159.2830776532491L555.0437596153847,179.34378852844236L555.8771586538462,139.70694834391276L556.7105576923077,149.81863663991294L558.3773557692307,162.44070768356323L559.2107548076924,170.18684600194297L560.0441538461539,161.7263950983683L560.8775528846154,150.64230785369875L561.7109519230769,189.691895198822L562.5443509615385,157.87036790847776L563.37775,121.42223358154297L564.2111490384616,168.78852965037026L565.0445480769231,122.66651306152346L565.8779471153847,160.9375508626302L566.7113461538462,138.28170280456544L567.5447451923077,156.36517372131345L568.3781442307692,176.0160504023234L569.2115432692308,143.486070950826L570.8783413461539,125.15032615661619L571.7117403846154,106.47649841308595L572.5451394230769,161.44466330210366L573.3785384615386,152.60003703435262L574.2119375000001,163.3580617904663L575.0453365384616,140.26072845458987L575.8787355769231,170.82417011260986L577.5455336538462,158.09855292638144L578.3789326923078,193.9555274645487L579.2123317307693,91.57628040313722L580.0457307692308,145.12420927683513L580.8791298076924,186.6720989863078L581.7125288461539,152.46343762079874L583.379326923077,143.29992758433025L584.2127259615385,137.49012610117592L585.0461250000001,174.99138701756794L585.8795240384616,175.98352444966633L586.7129230769231,168.36609973907468L587.5463221153846,152.0675653775533L588.3797211538463,121.3411703745524L590.0465192307693,117.87206300099689L590.8799182692308,136.50535914103187L591.7133173076923,165.99440170923867L592.5467163461539,114.51810277303059L593.3801153846155,177.3484879175822L594.213514423077,131.60067558288574L595.8803125000001,160.92645320892336L596.7137115384616,145.05244604746503L597.547110576923,170.15288190841676L598.3805096153847,145.32485389709473L599.2139086538461,147.51219425201418L600.0473076923078,157.0849991798401L600.8807067307692,147.58266315460207L602.5475048076922,145.49599266052246L603.380903846154,173.94676942825316L604.2143028846154,111.13856760660809L605.0477019230769,121.7488593419393L605.8811009615384,139.3773264567057L606.7145,166.87478361129763L607.5478990384617,129.9806338628133L609.2146971153846,98.23398577372234L610.0480961538461,164.61811288197833L610.8814951923077,120.55616118113198L611.7148942307692,170.06444822947185L612.5482932692308,148.79192390441892L613.3816923076923,153.04153429667156L615.0484903846154,114.42773958841957L615.8818894230769,120.7044335047404L616.7152884615384,101.86754455566404L617.5486875,185.55851055781045L618.3820865384616,110.95518067677818L619.2154855769231,142.6562157313029L620.0488846153846,125.28517583211266L621.7156826923077,84.1130963007609L622.5490817307693,140.02127799987795L623.3824807692308,127.94679107666013L624.2158798076923,159.55342416763307L625.0492788461538,160.58150313695273L625.8826778846154,127.10425624847414L627.5494759615385,119.20989354451496L628.382875,134.25627460479734L629.2162740384616,126.86933593750001L630.0496730769231,131.70554002126056L630.8830721153846,154.78488461176556L631.7164711538461,156.35230236053468L632.5498701923077,158.85083243052162L634.2166682692308,150.11515731811522L635.0500673076923,135.02146142323812L635.8834663461538,158.4532464027405L636.7168653846154,154.49573440551757L637.550264423077,116.83588250478107L638.3836634615385,118.79189790089924L640.0504615384616,101.28272457122802L640.8838605769231,133.3430072148641L641.7172596153846,155.23123559951785L642.5506586538462,151.62208925882976L643.3840576923077,113.67010300954183L644.2174567307693,92.94047686258949L645.0508557692308,112.62493413289388L646.7176538461538,147.33309777577716L647.5510528846155,146.54660250345864L648.384451923077,129.06933193206788L649.2178509615385,151.23280849456785L650.05125,165.34171346028648L650.8846490384615,173.26227429707848L651.7180480769232,145.72760524749754L653.3848461538462,97.4468193689982L654.2182451923077,142.08898900349936L655.0516442307693,104.50466346740723L655.8850432692308,138.80993194580077L656.7184423076924,108.77730808258059L657.5518413461539,140.39847838083904L659.218639423077,142.59241021474202L660.0520384615385,118.60899035135907L660.8854375,134.7180616378784L661.7188365384616,147.27976671854657L662.5522355769232,189.15677496592207L663.3856346153847,140.6885753631592L664.2190336538462,148.60884857177734L665.8858317307692,149.6895395278931L666.7192307692309,157.09379580815636L667.5526298076924,173.5191382408142L668.3860288461539,138.959378751119L669.2194278846154,114.6602150599162L670.052826923077,190.09510196050007L671.7196250000001,135.091930325826L672.5530240384616,183.65410044988L673.386423076923,151.13961696624756L674.2198221153847,163.7900074005127L675.0532211538462,149.63091131846107L675.8866201923076,116.99438959757487L676.7200192307693,174.76780405044553L678.3868173076924,102.93325487772626L679.2202163461538,84.22536716461184L680.0536153846153,120.66941477457681L680.8870144230771,98.57393830617269L681.7204134615386,136.9601711908976L682.5538125,137.18838017781576L683.3872115384615,92.51135959625242L684.220610576923,160.45338875452677L685.0540096153846,124.73530267079673L685.8874086538463,152.12976497014364L686.7208076923077,120.19391746520995L687.5542067307692,142.96426550547284L688.3876057692308,160.2583768526713L689.2210048076923,142.97728068033854L690.8878028846154,87.32417723337807L691.7212019230769,133.31623382568358L692.5546009615385,100.40577023824056L693.388,130.98877061208088L694.2213990384615,131.63924172719322L695.054798076923,125.60242970784503L695.8881971153847,124.92976328531898L697.5549951923077,145.90612646738685L698.3883942307692,166.41383549372352L699.2217932692307,126.03600521087645L700.0551923076923,149.06471525828044L700.8885913461539,148.27778854370115L701.7219903846154,140.0603474934896L703.3887884615385,133.56984996795654L704.2221875,135.01563695271813L705.0555865384615,128.974582417806L705.8889855769231,74.51432094573977L706.7223846153846,123.67517712910973L707.5557836538462,140.1260465621948L708.3891826923077,129.10202566782635L710.0559807692307,141.8454158782959L710.8893798076924,159.27014636993408L711.7227788461539,129.95968494415285L712.5561778846154,110.8121815363566L713.3895769230769,98.14098599751793L714.2229759615384,88.30014756520592L715.8897740384616,170.38321215311686L716.7231730769231,120.44791711171467L717.5565721153846,101.37327950795492L718.3899711538462,77.71305783589679L719.2233701923077,139.57068449656168L720.0567692307693,181.6299291610718L720.8901682692308,123.12098954518638L722.5569663461539,138.67994798024495L723.3903653846154,83.85013224283853L724.2237644230769,80.35139916737876L725.0571634615385,111.65850346883138L725.8905625000001,142.04167416890465L726.7239615384616,131.47673180898033L727.5573605769231,52.87969671885173L729.2241586538462,95.88142700195311L730.0575576923078,88.09439754486084L730.8909567307693,149.28213818868L731.7243557692308,118.50973466237389L732.5577548076923,117.25977452596027L733.3911538461539,112.58121465047202L735.057951923077,108.07700538635254L735.8913509615385,98.30793018341063L736.7247500000001,93.76582590738934L737.5581490384616,79.09357719421388L738.3915480769231,51.28422323862713L739.2249471153846,117.02463849385578L740.0583461538462,94.75687274932864L741.7251442307693,150.85312732060748L742.5585432692308,119.86889762878417L743.3919423076923,112.7865571975708L744.225341346154,114.24936218261718L745.0587403846155,114.93346182505292L745.892139423077,79.01294542948403L747.5589375,120.17366364796959L748.3923365384616,124.89922676086428L749.2257355769232,120.73810997009275L750.0591346153847,74.69262644449867L750.8925336538462,151.5220066388448L751.7259326923078,65.70062669118244L752.5593317307693,133.25887597401936L754.2261298076924,135.0565999984741L755.059528846154,170.4718855222066L755.8929278846155,101.47035401662191L756.726326923077,139.58930842081708L757.5597259615384,87.54500376383464L758.3931249999999,98.32336622873942L760.0599230769232,117.59893608093262L760.8933221153846,136.02415720621747L761.7267211538461,90.48988482157387L762.5601201923077,113.86470743815102L763.3935192307692,111.19475097656249L764.2269182692309,104.98989219665526L765.0603173076923,96.1906752268473L766.7271153846154,116.09416135152179L767.5605144230769,92.99953651428223L768.3939134615384,140.50538018544518L769.2273125,131.51362012227378L770.0607115384616,113.79131431579589L770.8941105769231,85.98809642791747L771.7275096153846,128.3575241088867L773.3943076923076,114.96718622843423L774.2277067307693,117.38177680969238L775.0611057692308,103.04034843444822L775.8945048076923,102.2196014404297L776.7279038461538,96.81168842315674L777.5613028846154,126.3981290817261L779.2281009615385,111.66092433929441L780.0615,131.26268850962322L780.8948990384615,106.33290004730225L781.7282980769231,65.8011047999064L782.5616971153846,109.35196520487466L783.3950961538462,142.33272991180422L784.2284951923077,114.35820547739667L785.8952932692308,130.83937174479166L786.7286923076923,153.84172786076863L787.5620913461538,100.83409652709963L788.3954903846154,113.36368312835691L789.228889423077,135.01940008799232L790.0622884615385,86.26234989166261L791.7290865384615,113.0325272242228L792.5624855769231,107.7843676884969L793.3958846153847,135.135458056132L794.2292836538462,122.5251438140869L795.0626826923077,77.76463915506997L795.8960817307693,76.12053254445397L796.7294807692308,135.288596089681L798.3962788461539,73.20211327870686L799.2296778846154,108.95499038696289L800.063076923077,88.87943070729574L800.8964759615385,69.08052139282228L801.729875,47.98198814392089L802.5632740384615,125.8769947687785L803.3966730769232,61.47419433593751L804.2300721153847,98.54270668029784L805.0634711538462,78.06703224182127L805.8968701923077,107.65488707224529L806.7302692307692,125.51091601053872L807.5636682692308,125.56817798614503L808.3970673076924,138.7118507385254L809.2304663461539,144.8061644236247L810.897264423077,164.40179252624512L811.7306634615385,92.93529955546063L812.5640625000001,122.16666323343912L813.3974615384616,123.53553365071616L814.2308605769231,124.31579697926838L815.0642596153847,75.29055747985842L815.8976586538462,138.03568483988442L817.5644567307693,140.07863585154217L818.3978557692309,109.33163948059081L819.2312548076924,124.85184001922607L820.0646538461539,94.71624526977541L820.8980528846154,48.00586128234863L821.7314519230769,110.52937113444011L823.3982500000001,120.4922597885132L824.2316490384616,90.20748189290367L825.0650480769231,102.13352870941162L825.8984471153847,81.48585262298582L826.7318461538462,110.51863301595051L827.5652451923078,122.54887313842772L828.3986442307693,156.24428599675497L830.0654423076924,117.60253143310547L830.8988413461539,77.94119491577146L831.7322403846154,70.69557755788168L832.565639423077,120.12920112609862L833.3990384615386,120.21704756418865L834.2324375000001,110.19018561045328L835.899235576923,113.39966061909996L836.7326346153847,163.95942039489745L837.5660336538463,112.63766167958579L838.3994326923078,95.15777848561606L839.2328317307692,103.80292263031004L840.0662307692307,150.85268389383953L840.8996298076923,65.3953093846639L842.5664278846155,82.54628976186115L843.399826923077,83.54399998982746L844.2332259615386,90.47396939595541L845.066625,125.90304908752444L845.9000240384615,125.96754970550535L846.733423076923,146.7537427266439L847.5668221153846,134.82585029602052L849.2336201923077,70.20737667083739L850.0670192307692,144.3422441482544L850.9004182692307,108.07949816385906L851.7338173076924,104.50799516042076L852.5672163461539,73.79460334777832L853.4006153846154,150.3193493525187L855.0674134615384,110.22585150400795L855.9008125,147.80543117523194L856.7342115384616,92.63980954488119L857.5676105769231,114.2142236073812L858.4010096153846,23.47141774495441L859.2344086538462,111.64891586303713L860.0678076923077,93.7619908650716L861.7346057692308,82.23663406372071L862.5680048076923,60.355009142557776L863.4014038461539,82.17354761759441L864.2348028846154,100.74186375935875L865.0682019230769,94.62945346832277L865.9016009615384,146.5763480504354L867.5683990384616,118.56759586334226L868.4017980769231,119.59095293680826L869.2351971153846,70.26950435638429L870.0685961538461,61.50631281534829L870.9019951923077,116.74257113138833L871.7353942307693,66.97127208709719L872.5687932692308,102.70705928802488L874.2355913461539,108.71115360260012L875.0689903846154,133.79002933502198L875.9023894230769,144.41084346771243L876.7357884615385,104.47465426127116L877.5691875000001,109.28957386016845L878.4025865384616,105.14053745269774L880.0693846153846,96.93366673787438L880.9027836538461,91.61038831075035L881.7361826923078,129.8233491897583L882.5695817307693,127.36925767262778L883.4029807692308,90.05146757761639L884.2363798076923,59.1365203221639L885.0697788461539,84.66143544514972L886.736576923077,92.94591782887778L887.5699759615385,53.58333110809326L888.403375,116.26966247558596L889.2367740384616,140.71858456929527L890.0701730769231,95.23716386159259L890.9035721153847,126.49796002705892L891.7369711538462,133.09984156290687L893.4037692307693,113.9956501642863L894.2371682692308,117.77012278238931L895.0705673076923,130.98793169657387L895.9039663461539,124.9784443537394L896.7373653846155,157.31330404281618L897.570764423077,112.06746279398601L899.2375625,88.92935816446942L900.0709615384616,109.24899431864418L900.9043605769232,75.05848948160809L901.7377596153847,84.39300645192463L902.5711586538462,152.04322484334313L903.4045576923077,76.41990553538005L904.2379567307693,76.66577968597414L905.9047548076924,110.88305791219074L906.7381538461539,126.36783224741617L907.5715528846155,110.08215726216633L908.404951923077,101.73063354492189L909.2383509615385,100.72760219573973L910.07175,120.23780473073322L911.7385480769232,63.81764488220216L912.5719471153847,66.49385725657146L913.4053461538462,71.53497244517007L914.2387451923076,64.19345506032306L915.0721442307694,106.86652221679685L915.9055432692309,120.59043687184652L916.7389423076924,72.80204645792645L918.4057403846155,97.64406038920083L919.239139423077,105.57797196706139L920.0725384615386,77.15875040690105L920.9059375,49.807348442077625L921.7393365384615,119.3017188390096L922.5727355769232,128.17003847757974L923.4061346153846,52.65364494323729L924.2395336538461,85.98567555745444L925.0729326923077,66.27037016550702L925.9063317307694,89.07041581471759L926.7397307692308,123.7869446436564L927.5731298076923,57.58002045949302L928.4065288461538,82.28706487019855L929.2399278846153,71.34357986450198L930.9067259615385,92.67334219614662L931.740125,32.41749286651611L932.5735240384615,29.91682955423989L933.4069230769231,62.03681901295982L934.2403221153846,48.22596874237059L935.0737211538462,57.250590324401855L935.9071201923077,121.5170310338338L937.5739182692308,120.95649166107177L938.4073173076923,28.549924596150728L939.2407163461538,125.53308734893801L940.0741153846154,88.51524550120035L940.907514423077,84.50072320302326L941.7409134615385,82.6268496195475L943.4077115384615,114.46134414672849L944.241110576923,101.20789330800375L945.0745096153847,124.39333674112953L945.9079086538462,96.81180826822919L946.7413076923077,87.97711715698244L947.5747067307692,82.40837205251057L948.4081057692308,128.83546625773113L950.0749038461539,66.86573651631676L950.9083028846154,12.909159914652495L951.741701923077,109.87103818257651L952.5751009615385,68.56981360117595L953.4085,51.345823605855294L954.2418990384616,79.12660649617516L955.9086971153847,76.90544586181642L956.7420961538462,83.90578829447429L957.5754951923077,83.76497033437096L958.4088942307692,85.78177115122475L959.2422932692309,78.01137619018556L960.0756923076924,81.38072452545168L960.9090913461539,35.376803270975756L962.5758894230769,20.577926254272477L963.4092884615385,112.49751485188801L964.2426875000001,61.31190013885498L965.0760865384616,109.88187217712402L965.9094855769231,100.57688503265382L966.7428846153847,83.85521367390953L967.5762836538462,58.959844716389966L969.2430817307693,113.97436567942299L970.0764807692308,48.855850474039705L970.9098798076924,82.66850776672362L971.7432788461539,126.11071662902833L972.5766778846154,123.7945428212484L973.4100769230769,79.0302270889282L975.0768750000001,93.87579574584959L975.9102740384616,142.62167638142904L976.7436730769231,18.06798693339028L977.5770721153846,81.47149518330895L978.4104711538463,112.8294377644857L979.2438701923078,130.14412651062014L980.0772692307693,61.00989055633545L981.7440673076924,104.40986601511639L982.5774663461539,46.034697469075525L983.4108653846155,97.7688670476278L984.244264423077,102.15037892659507L985.0776634615385,50.11499074300132L985.9110625000001,91.3331866582235L987.5778605769231,84.45755500793456L988.4112596153847,89.14390481313069L989.2446586538463,55.85329265594481L990.0780576923078,48.39614874521891L990.9114567307693,78.18692525227863L991.7448557692308,96.97784163157144L992.5782548076924,122.36848233540854L994.2450528846155,31.44650808970135L995.078451923077,93.34344393412272L995.9118509615384,68.62017250061035L996.74525,61.008164787292465L997.5786490384615,125.45717748006183L998.4120480769232,61.51611614227295L1000.0788461538463,102.55907459259032L1000.9122451923078,75.64908599853516L1001.7456442307692,90.61759173075359L1002.5790432692307,75.03339392344157L1003.4124423076923,73.78631006876628L1004.245841346154,59.600200907389315L1005.0792403846154,150.9636963844299L1006.7460384615384,53.21420828501385L1007.5794375,137.68156661987302L1008.4128365384616,57.99437281290688L1009.2462355769231,106.92064425150551L1010.0796346153846,62.18166376749674L1010.9130336538461,77.56361103057861L1011.7464326923077,102.51638577779136L1013.4132307692308,52.876676623026526L1014.2466298076923,75.87592875162761L1015.0800288461539,-12.988497352600115L1015.9134278846154,2.1239662806193005L1016.7468269230769,78.32038472493491L1017.5802259615384,83.91667022705076L1019.2470240384616,87.8300193150838L1020.0804230769231,55.04980335235597L1020.9138221153846,119.54033037821449L1021.7472211538461,39.70790831247967L1022.5806201923078,97.97512041727703L1023.4140192307693,75.23950347900393L1024.2474182692308,130.71700992584226L1025.914216346154,84.13219960530597L1026.7476153846155,53.125451024373376" style="fill: none;" fill="none"></path></g></g></g></g></g></g><g transform="translate(30, 377)" clip-path="url(#clip_1)"><clipPath id="clip_1"><rect width="1083" height="23"></rect></clipPath><g><g><line x1="0" y1="0" x2="0" y2="5" style="visibility: inherit;" fill="rgb(0, 0, 0)" stroke="rgb(204, 204, 204)" stroke-width="1px"></line><line x1="83.33990384615386" y1="0" x2="83.33990384615386" y2="5" style="visibility: inherit;" fill="rgb(0, 0, 0)" stroke="rgb(204, 204, 204)" stroke-width="1px"></line><line x1="166.67980769230772" y1="0" x2="166.67980769230772" y2="5" style="visibility: inherit;" fill="rgb(0, 0, 0)" stroke="rgb(204, 204, 204)" stroke-width="1px"></line><line x1="250.01971153846156" y1="0" x2="250.01971153846156" y2="5" style="visibility: inherit;" fill="rgb(0, 0, 0)" stroke="rgb(204, 204, 204)" stroke-width="1px"></line><line x1="333.35961538461544" y1="0" x2="333.35961538461544" y2="5" style="visibility: inherit;" fill="rgb(0, 0, 0)" stroke="rgb(204, 204, 204)" stroke-width="1px"></line><line x1="416.6995192307693" y1="0" x2="416.6995192307693" y2="5" style="visibility: inherit;" fill="rgb(0, 0, 0)" stroke="rgb(204, 204, 204)" stroke-width="1px"></line><line x1="500.03942307692313" y1="0" x2="500.03942307692313" y2="5" style="visibility: inherit;" fill="rgb(0, 0, 0)" stroke="rgb(204, 204, 204)" stroke-width="1px"></line><line x1="583.379326923077" y1="0" x2="583.379326923077" y2="5" style="visibility: inherit;" fill="rgb(0, 0, 0)" stroke="rgb(204, 204, 204)" stroke-width="1px"></line><line x1="666.7192307692309" y1="0" x2="666.7192307692309" y2="5" style="visibility: inherit;" fill="rgb(0, 0, 0)" stroke="rgb(204, 204, 204)" stroke-width="1px"></line><line x1="750.0591346153847" y1="0" x2="750.0591346153847" y2="5" style="visibility: inherit;" fill="rgb(0, 0, 0)" stroke="rgb(204, 204, 204)" stroke-width="1px"></line><line x1="833.3990384615386" y1="0" x2="833.3990384615386" y2="5" style="visibility: inherit;" fill="rgb(0, 0, 0)" stroke="rgb(204, 204, 204)" stroke-width="1px"></line><line x1="916.7389423076924" y1="0" x2="916.7389423076924" y2="5" style="visibility: inherit;" fill="rgb(0, 0, 0)" stroke="rgb(204, 204, 204)" stroke-width="1px"></line><line x1="1000.0788461538463" y1="0" x2="1000.0788461538463" y2="5" style="visibility: inherit;" fill="rgb(0, 0, 0)" stroke="rgb(204, 204, 204)" stroke-width="1px"></line><line x1="1083.41875" y1="0" x2="1083.41875" y2="5" style="visibility: inherit;" fill="rgb(0, 0, 0)" stroke="rgb(204, 204, 204)" stroke-width="1px"></line></g><g transform="translate(0, 8)"><text x="0" y="0" dx="0em" dy="0.95em" style="text-anchor: middle; visibility: hidden; font-family: Roboto, sans-serif; font-size: 12px; font-weight: 200;" fill="rgb(255, 255, 255)" stroke="none" stroke-width="1px">-5M</text><text x="83.33990384615386" y="0" dx="0em" dy="0.95em" style="text-anchor: middle; visibility: inherit; font-family: Roboto, sans-serif; font-size: 12px; font-weight: 200;" fill="rgb(255, 255, 255)" stroke="none" stroke-width="1px">0</text><text x="166.67980769230772" y="0" dx="0em" dy="0.95em" style="text-anchor: middle; visibility: inherit; font-family: Roboto, sans-serif; font-size: 12px; font-weight: 200;" fill="rgb(255, 255, 255)" stroke="none" stroke-width="1px">5M</text><text x="250.01971153846156" y="0" dx="0em" dy="0.95em" style="text-anchor: middle; visibility: inherit; font-family: Roboto, sans-serif; font-size: 12px; font-weight: 200;" fill="rgb(255, 255, 255)" stroke="none" stroke-width="1px">10M</text><text x="333.35961538461544" y="0" dx="0em" dy="0.95em" style="text-anchor: middle; visibility: inherit; font-family: Roboto, sans-serif; font-size: 12px; font-weight: 200;" fill="rgb(255, 255, 255)" stroke="none" stroke-width="1px">15M</text><text x="416.6995192307693" y="0" dx="0em" dy="0.95em" style="text-anchor: middle; visibility: inherit; font-family: Roboto, sans-serif; font-size: 12px; font-weight: 200;" fill="rgb(255, 255, 255)" stroke="none" stroke-width="1px">20M</text><text x="500.03942307692313" y="0" dx="0em" dy="0.95em" style="text-anchor: middle; visibility: inherit; font-family: Roboto, sans-serif; font-size: 12px; font-weight: 200;" fill="rgb(255, 255, 255)" stroke="none" stroke-width="1px">25M</text><text x="583.379326923077" y="0" dx="0em" dy="0.95em" style="text-anchor: middle; visibility: inherit; font-family: Roboto, sans-serif; font-size: 12px; font-weight: 200;" fill="rgb(255, 255, 255)" stroke="none" stroke-width="1px">30M</text><text x="666.7192307692309" y="0" dx="0em" dy="0.95em" style="text-anchor: middle; visibility: inherit; font-family: Roboto, sans-serif; font-size: 12px; font-weight: 200;" fill="rgb(255, 255, 255)" stroke="none" stroke-width="1px">35M</text><text x="750.0591346153847" y="0" dx="0em" dy="0.95em" style="text-anchor: middle; visibility: inherit; font-family: Roboto, sans-serif; font-size: 12px; font-weight: 200;" fill="rgb(255, 255, 255)" stroke="none" stroke-width="1px">40M</text><text x="833.3990384615386" y="0" dx="0em" dy="0.95em" style="text-anchor: middle; visibility: inherit; font-family: Roboto, sans-serif; font-size: 12px; font-weight: 200;" fill="rgb(255, 255, 255)" stroke="none" stroke-width="1px">45M</text><text x="916.7389423076924" y="0" dx="0em" dy="0.95em" style="text-anchor: middle; visibility: inherit; font-family: Roboto, sans-serif; font-size: 12px; font-weight: 200;" fill="rgb(255, 255, 255)" stroke="none" stroke-width="1px">50M</text><text x="1000.0788461538463" y="0" dx="0em" dy="0.95em" style="text-anchor: middle; visibility: inherit; font-family: Roboto, sans-serif; font-size: 12px; font-weight: 200;" fill="rgb(255, 255, 255)" stroke="none" stroke-width="1px">55M</text><text x="1083.41875" y="0" dx="0em" dy="0.95em" style="text-anchor: middle; visibility: hidden; font-family: Roboto, sans-serif; font-size: 12px; font-weight: 200;" fill="rgb(255, 255, 255)" stroke="none" stroke-width="1px">60M</text></g><line x1="0" y1="0" x2="1083.41875" y2="0" fill="rgb(0, 0, 0)" stroke="rgb(204, 204, 204)" stroke-width="1px"></line></g></g></g></g></svg>